<?xml version="1.0" encoding="UTF-8" standalone="no"?>
<!-- Created with Inkscape (http://www.inkscape.org/) -->

<svg
   xmlns:dc="http://purl.org/dc/elements/1.1/"
   xmlns:cc="http://creativecommons.org/ns#"
   xmlns:rdf="http://www.w3.org/1999/02/22-rdf-syntax-ns#"
   xmlns:svg="http://www.w3.org/2000/svg"
   xmlns="http://www.w3.org/2000/svg"
   xmlns:xlink="http://www.w3.org/1999/xlink"
   xmlns:sodipodi="http://sodipodi.sourceforge.net/DTD/sodipodi-0.dtd"
   xmlns:inkscape="http://www.inkscape.org/namespaces/inkscape"
   width="1920"
   height="1080"
   id="svg2"
   version="1.1"
   inkscape:version="0.48.5 r10040"
   sodipodi:docname="gato-0.2.svg"
   inkscape:export-filename="/home/tosstt/gato-0.2.png"
   inkscape:export-xdpi="90"
   inkscape:export-ydpi="90">
  <sodipodi:namedview
     id="base"
     pagecolor="#ffffff"
     bordercolor="#666666"
     borderopacity="1.0"
     inkscape:pageopacity="0.0"
     inkscape:pageshadow="2"
     inkscape:zoom="0.5"
     inkscape:cx="886.82808"
     inkscape:cy="603.31331"
     inkscape:document-units="px"
     inkscape:current-layer="layer1"
     showgrid="false"
     inkscape:window-width="1920"
     inkscape:window-height="1080"
     inkscape:window-x="0"
     inkscape:window-y="0"
     inkscape:window-maximized="0"
     fit-margin-top="0"
     fit-margin-left="0"
     fit-margin-right="0"
     fit-margin-bottom="0" />
  <defs
     id="defs4">
    <linearGradient
       id="linearGradient3875">
      <stop
         style="stop-color:#767676;stop-opacity:1;"
         offset="0"
         id="stop3877" />
      <stop
         style="stop-color:#000000;stop-opacity:1;"
         offset="1"
         id="stop3879" />
    </linearGradient>
    <radialGradient
       inkscape:collect="always"
       xlink:href="#linearGradient3875"
       id="radialGradient3881"
       cx="369.61646"
       cy="254.17609"
       fx="369.61646"
       fy="254.17609"
       r="353.05658"
       gradientTransform="matrix(2.7191109,0,0,1.5294999,-465.02814,-679.37981)"
       gradientUnits="userSpaceOnUse" />
  </defs>
  <metadata
     id="metadata7">
    <rdf:RDF>
      <cc:Work
         rdf:about="">
        <dc:format>image/svg+xml</dc:format>
        <dc:type
           rdf:resource="http://purl.org/dc/dcmitype/StillImage" />
        <dc:title />
      </cc:Work>
    </rdf:RDF>
  </metadata>
  <g
     inkscape:label="Layer 1"
     inkscape:groupmode="layer"
     id="layer1"
     transform="translate(420,830.61755)">
    <rect
       style="fill:url(#radialGradient3881);fill-opacity:1;fill-rule:nonzero;stroke:none"
       id="rect3105"
       width="1920"
       height="1080"
       x="-420"
       y="-830.61755" />
    <g
       id="g5265"
       transform="translate(1.52293,58.270595)">
      <path
         id="path3016"
         d="m 544.45229,-11.214695 c -5.81393,-2.333052 -10.99784,-7.490728 -13.59364,-13.5248 -2.39899,-5.576629 -2.58948,-7.498504 -1.89347,-19.101955 0.42565,-7.095789 1.28388,-21.38074 1.90719,-31.744298 0.62332,-10.363549 1.74027,-32.222002 2.48209,-48.574342 1.50047,-33.07514 1.94898,-35.11745 11.15446,-50.7922 2.84225,-4.8397 15.36249,-25.62758 27.82277,-46.1953 12.46024,-20.56776 23.48303,-39.03705 24.49507,-41.04291 1.01201,-2.00585 4.11888,-6.23315 6.90407,-9.39399 4.17754,-4.74096 8.86892,-7.66711 26.79923,-16.71543 11.95437,-6.03261 23.11421,-10.9684 24.79965,-10.9684 1.68546,0 4.95951,1.66391 7.27572,3.69756 l 4.21127,3.69752 8.29159,-1.39653 c 12.52718,-2.10991 27.93032,-5.78114 32.32995,-7.70561 2.1571,-0.94353 6.38373,-3.99606 9.39251,-6.78337 6.97964,-6.4659 10.80435,-9.07073 11.82304,-8.05207 1.30481,1.30484 -2.06521,15.4033 -5.33454,22.31693 -2.98306,6.30819 -6.4885,8.52313 -6.4885,4.09975 0,-4.08026 -2.54886,-4.81891 -9.72534,-2.81832 -9.68485,2.69979 -24.77392,17.9426 -35.07008,35.42739 -10.887,18.48816 -9.72477,22.07843 4.42582,13.67174 7.88293,-4.68316 21.19934,-9.95965 25.13541,-9.95965 2.21838,0 2.3617,2.31372 0.30362,4.90049 -0.81452,1.02376 -12.69545,10.84198 -26.40208,21.81831 -60.05684,48.0938 -92.71677,77.32217 -97.79793,87.52244 -4.00927,8.04846 -5.58446,15.74885 -6.71463,32.825 -0.94276,14.244313 -0.0679,39.591062 2.16178,62.63614 1.13039,11.683125 -0.40812,17.531557 -6.47719,24.621859 -6.6088,7.720909 -14.81648,10.5041377 -22.21784,7.534046 z"
         style="fill:#cccccc"
         inkscape:connector-curvature="0" />
      <path
         id="path3014"
         d="m 430.68089,-131.87845 c -4.22903,-3.91934 -6.01452,-12.25456 -5.32691,-24.86763 0.47819,-8.77173 1.474,-12.90247 5.71557,-23.70903 6.66131,-16.97161 33.06266,-70.15154 36.22475,-72.96719 2.87724,-2.56197 5.93015,-3.39823 102.5581,-28.09256 11.76527,-3.00673 22.57548,-5.15715 24.0227,-4.77869 4.71721,1.23356 4.5582,5.83019 -0.4885,14.12103 -14.4725,23.77581 -28.90764,43.3685 -31.99585,43.42767 -0.42521,0.009 -14.13909,2.71127 -30.47528,6.00695 -18.97894,3.8288 -30.76528,6.78594 -32.64677,8.19093 -1.72094,1.28506 -10.69903,17.10183 -21.60459,38.06095 -19.93205,38.30679 -23.65469,43.52171 -32.90043,46.0889 -6.98572,1.93967 -9.72629,1.62935 -13.08279,-1.48133 z"
         style="fill:#cccccc"
         inkscape:connector-curvature="0" />
      <path
         id="path3012"
         d="m 853.8007,-179.22129 c -6.15415,-4.39804 -36.39123,-28.19007 -53.68807,-42.24438 -6.17156,-5.01463 -15.56371,-12.63739 -20.87144,-16.93949 -14.84379,-12.03134 -14.32709,-10.87014 -14.7793,-33.21275 -0.34177,-16.88693 -0.15077,-19.24366 1.6145,-19.92109 1.1437,-0.43886 3.22447,0.21525 4.85278,1.52562 6.38577,5.13864 85.52394,74.18309 90.96996,79.36716 10.3873,9.88766 14.17487,21.08701 9.91645,29.32186 -3.70482,7.16432 -9.91783,7.88964 -18.01488,2.10307 z"
         style="fill:#cccccc"
         inkscape:connector-curvature="0" />
      <path
         id="path3010"
         d="m 684.64819,-257.99361 c 10.36661,-10.47738 20.61484,-15.97719 31.19793,-16.74269 l 7.24189,-0.52384 5.75837,6.23092 c 3.16711,3.42698 6.01945,6.23089 6.33855,6.23089 0.31908,0 0.62127,-7.52192 0.67155,-16.7154 0.0938,-17.15523 2.86285,-33.4214 7.07659,-41.56985 3.78128,-7.31219 16.32,-15.3216 31.64181,-20.21197 12.14426,-3.87615 12.0489,-4.36205 -3.18237,-16.21591 -10.00702,-7.78807 -23.49547,-22.6553 -27.20592,-29.98699 -7.20433,-14.23533 -4.08359,-28.99778 9.2034,-43.53586 3.29398,-3.60413 5.98906,-7.66988 5.98906,-9.03501 0,-3.35815 -5.1424,-6.78301 -14.93459,-9.94653 -5.14201,-1.66123 -9.04791,-3.7756 -10.58545,-5.73026 -2.66216,-3.38442 -8.03904,-19.26812 -9.28435,-27.42666 -1.78088,-11.66742 -4.17209,-11.92247 -25.31698,-2.70027 -14.30665,6.23973 -21.32826,8.10219 -21.32826,5.65727 0,-0.56587 5.88079,-6.44129 13.06842,-13.05649 19.70227,-18.13321 33.82805,-32.55886 37.35879,-38.15196 4.01529,-6.36064 6.42809,-7.3348 9.32026,-3.76313 2.0343,2.51227 2.21034,5.14715 1.98297,29.68265 -0.21452,23.16458 0.0555,27.81876 1.93456,33.31947 1.28678,3.76705 3.26605,6.97486 4.81778,7.80815 4.78091,2.56735 17.00514,4.6346 32.15731,5.43812 8.21459,0.4356 15.22968,1.26785 15.58909,1.84937 0.35943,0.58154 -1.47549,3.64299 -4.07756,6.80325 -7.41369,9.0041 -18.95916,25.44554 -25.73073,36.64221 -5.81456,9.61423 -7.18705,14.3174 -5.47791,18.7713 0.38994,1.0162 13.8058,13.46685 29.81305,27.66812 16.00723,14.20128 28.93546,26.32632 28.72937,26.94454 -0.20603,0.61822 -6.37352,2.65252 -13.70548,4.52064 -16.95255,4.31941 -32.63053,10.10534 -38.85978,14.34116 -2.82149,1.91856 -6.00113,5.59883 -7.5748,8.76737 -5.05087,10.16995 -11.25704,39.38599 -11.26417,53.02691 -0.005,12.81223 -4.88062,12.95059 -19.31303,0.54823 -3.75519,-3.22698 -8.02257,-6.48328 -9.48297,-7.23621 -6.86763,-3.5405 -16.33351,-0.35087 -30.41734,10.24945 -4.83502,3.63917 -9.20389,6.61663 -9.70853,6.61663 -0.50469,0 2.89709,-3.85545 7.55947,-8.56762 z"
         style="fill:#cccccc"
         inkscape:connector-curvature="0" />
      <path
         id="path3008"
         d="m 799.6864,-293.84127 c -10.28104,-2.23135 -20.13587,-7.80068 -20.59889,-11.64119 -0.33357,-2.7667 1.08719,-3.38334 30.19158,-13.10376 18.33176,-6.1225 30.81691,-10.91784 31.23026,-11.99496 0.37874,-0.98705 0.19538,-3.0162 -0.40778,-4.50927 -0.603,-1.49308 -13.26825,-13.49723 -28.14497,-26.67592 -23.04171,-20.41174 -27.04854,-24.46268 -27.04854,-27.34631 0,-4.32938 2.94258,-6.94735 10.29644,-9.16054 14.46288,-4.35268 29.60724,-2.98537 42.31228,3.82016 17.22939,9.22901 28.87651,28.9242 28.82645,48.74538 -0.0613,24.27031 -20.0923,47.9818 -44.27672,52.41202 -9.00479,1.64953 -12.67869,1.55996 -22.38011,-0.54561 z"
         style="fill:#cccccc"
         inkscape:connector-curvature="0" />
      <path
         id="path3006"
         d="m 605.92735,-309.90538 c -3.13188,-3.56246 -7.22633,-12.5909 -6.53137,-14.40193 1.15515,-3.01027 4.38757,-1.8281 6.97023,2.54918 1.38073,2.34015 3.03132,4.25483 3.66802,4.25483 2.82245,0 4.64357,-8.48517 4.22313,-19.67711 -0.46265,-12.31634 -3.80946,-24.60358 -10.99828,-40.37844 -3.46536,-7.60422 -5.66675,-10.25905 -17.76105,-21.41931 -7.59298,-7.00659 -26.55981,-24.6376 -42.14853,-39.17999 -15.58871,-14.5424 -28.90161,-26.44075 -29.58424,-26.44075 -1.25178,0 4.15449,9.09732 11.74128,19.7574 2.26141,3.17748 4.11163,6.04058 4.11163,6.36244 0,0.32188 4.12608,6.69062 9.16906,14.15275 5.04296,7.46214 10.56551,15.95046 12.27231,18.86289 3.27392,5.58651 5.36072,6.14343 4.4114,1.17733 -0.31121,-1.62796 -0.0962,-3.79909 0.47784,-4.82478 0.91666,-1.63801 1.86739,-1.53013 7.81408,0.8868 11.58394,4.70808 21.99696,12.91815 16.38439,12.91815 -1.07095,0 -4.73879,-1.45971 -8.15074,-3.24376 -7.40441,-3.87166 -9.39918,-3.15022 -11.79812,4.26703 -0.89922,2.78028 -2.33131,5.05504 -3.18244,5.05504 -0.85112,0 -10.78287,-14.05741 -22.07053,-31.23869 -11.28768,-17.18129 -24.51699,-37.28537 -29.39849,-44.67571 -8.63667,-13.07557 -10.89025,-18.2997 -7.89411,-18.2997 1.37828,0 14.93707,11.43806 33.14443,27.96033 4.42084,4.01169 12.09145,10.84981 17.04583,15.19582 4.95434,4.34601 14.26208,12.55175 20.68386,18.23498 6.42179,5.68322 17.00401,14.9831 23.51601,20.66633 10.87951,9.49488 12.26776,11.22076 17.11238,21.27417 6.89502,14.30836 12.85345,34.31219 12.85345,43.15197 0,3.77577 -0.88209,9.45387 -1.96021,12.61798 -1.07813,3.1641 -1.6964,6.01678 -1.37391,6.33927 0.32246,0.32246 6.26479,-1.8167 13.20513,-4.75374 6.94035,-2.93704 19.45694,-8.20805 27.81464,-11.71335 23.72311,-9.9497 50.13333,-21.76552 54.26347,-24.27722 2.0787,-1.26412 4.98083,-4.81345 6.49746,-7.94636 3.5398,-7.31228 3.8694,-23.27306 0.70382,-34.08489 -2.77448,-9.47611 -13.82403,-32.20329 -16.07695,-33.06784 -0.961,-0.36876 -5.63497,1.04669 -10.38663,3.14546 -7.39733,3.26733 -8.91768,3.57869 -10.57535,2.16581 -1.0648,-0.90755 -15.33871,-12.72431 -31.71981,-26.25948 -50.91892,-42.07262 -75.3713,-62.98673 -75.3713,-64.46494 0,-0.55084 5.8259,-3.55293 12.94644,-6.67135 l 12.94647,-5.66985 4.90738,4.62777 c 2.69904,2.5453 5.55062,5.17486 6.33685,5.84346 8.28304,7.04412 16.66586,14.36836 21.73723,18.99222 3.39007,3.09093 8.07844,7.18499 10.41859,9.09793 2.34016,1.91293 4.52836,3.76833 4.86268,4.12307 0.3343,0.35475 4.43717,3.91937 9.11748,7.92139 4.68033,4.00201 9.05674,7.88893 9.72533,8.63759 0.66862,0.74867 7.50674,6.72641 15.19582,13.28382 25.67767,21.89845 25.24424,21.4278 31.5323,34.24164 13.27951,27.06111 15.94841,46.67646 8.375,61.55269 -4.27495,8.39719 -0.34259,6.29645 -61.18143,32.68403 -60.48002,26.23196 -54.89757,24.24155 -58.02193,20.68762 z"
         style="fill:#cccccc"
         inkscape:connector-curvature="0" />
      <path
         id="path3002"
         d="m 581.11304,-323.64382 c -2.76846,-1.37039 -5.94394,-3.49755 -7.05664,-4.72705 -1.94872,-2.15331 -1.73308,-2.21218 5.86755,-1.60208 l 7.89063,0.63339 7.06787,-5.61028 c 3.88731,-3.08564 7.25044,-5.07168 7.47359,-4.41346 0.72452,2.13706 -6.56153,12.66832 -10.70824,15.47776 -4.8889,3.31226 -4.35628,3.30004 -10.53476,0.24167 z"
         style="fill:#cccccc"
         inkscape:connector-curvature="0" />
      <path
         id="path3000"
         d="m 561.83332,-336.51821 c -6.53002,-2.61179 -11.54885,-9.19457 -11.54885,-15.14775 0,-5.75123 1.80705,-6.96464 5.37711,-3.6107 2.31525,2.17503 3.30689,2.3926 6.08717,1.33554 4.67452,-1.77726 3.34571,-3.91642 -3.52092,-5.66812 -7.1826,-1.83229 -9.02914,-3.56288 -9.9668,-9.34091 -0.66241,-4.08204 -0.25785,-4.94371 4.60353,-9.8051 9.30535,-9.30535 19.1125,-9.63277 28.22054,-0.94221 10.33771,9.8639 14.41927,25.98689 8.57372,33.86791 -6.80333,9.17236 -18.43847,13.06586 -27.8255,9.31134 z"
         style="fill:#ffaaee"
         inkscape:connector-curvature="0" />
      <path
         id="path2998"
         d="m 596.51253,-351.84587 c 3.11697,-6.86678 2.99138,-10.44303 -0.6563,-18.6911 -1.6802,-3.79924 -2.76426,-7.19835 -2.40903,-7.5536 0.92879,-0.92877 10.20987,8.31739 12.25028,12.20418 0.94782,1.80551 1.72331,4.36079 1.72331,5.67843 0,2.33781 -10.08614,13.52868 -12.1932,13.52868 -0.58313,0 -0.005,-2.32496 1.28494,-5.16659 z"
         style="fill:#cccccc"
         inkscape:connector-curvature="0" />
      <path
         id="path2996"
         d="m 513.4651,-349.86525 c -0.47643,-0.47643 -0.86625,-1.62035 -0.86625,-2.54204 0,-2.0039 11.82755,-19.80097 13.15932,-19.80097 1.59973,0 20.80374,9.83523 21.54461,11.03394 1.80452,2.91983 -3.68597,2.16685 -10.43676,-1.4313 -9.0599,-4.82887 -10.28198,-4.3343 -14.00217,5.66695 -2.15565,5.79519 -3.26273,7.29123 -5.60911,7.57994 -1.60786,0.1978 -3.31321,-0.03 -3.78964,-0.50652 z"
         style="fill:#ffaaee"
         inkscape:connector-curvature="0" />
      <path
         id="path2992"
         d="m 607.7763,-399.25684 c -2.5255,-2.17301 -6.51066,-5.66428 -8.85591,-7.7584 -2.34525,-2.09416 -8.18708,-7.0176 -12.98186,-10.94101 -7.61012,-6.22715 -41.70693,-35.1382 -50.24202,-42.60076 -7.72255,-6.75211 -11.00377,-9.51788 -20.33787,-17.14306 -5.50257,-4.49512 -9.87688,-8.96548 -9.72068,-9.93407 0.1561,-0.96861 4.93183,-3.80563 10.61251,-6.30451 10.21462,-4.49329 15.21517,-5.64685 16.00165,-3.69137 0.22276,0.55414 4.23457,4.23537 8.91487,8.18051 70.79004,59.67044 95.4298,80.82062 95.4298,81.91464 0,0.54464 -0.68383,1.53642 -1.51958,2.20395 -1.29532,1.0346 -21.34565,10.025 -22.35767,10.025 -0.19344,0 -2.41778,-1.77792 -4.94324,-3.95092 z"
         style="fill:#cccccc"
         inkscape:connector-curvature="0" />
      <path
         id="path2990"
         d="m 636.304,-424.79406 c -8.19668,-6.8112 -15.99715,-13.40656 -17.33436,-14.6564 -1.33726,-1.24985 -6.49129,-5.64161 -11.45341,-9.7595 -4.96215,-4.11791 -11.25322,-9.46542 -13.98017,-11.88337 -2.72695,-2.41794 -12.8903,-11.0924 -22.58526,-19.2766 -21.82059,-18.42029 -24.54645,-20.81712 -26.43492,-23.24402 -1.31762,-1.69332 0.017,-2.58803 10.59699,-7.10581 6.65744,-2.84271 12.63178,-4.97974 13.27633,-4.74893 1.15472,0.41351 11.48717,9.095 63.2442,53.13868 14.43063,12.28008 30.19029,25.68278 35.02142,29.78383 4.83114,4.10104 8.79726,8.02669 8.81358,8.72361 0.025,1.07165 -15.36029,8.52329 -22.14509,10.72554 -1.47029,0.47726 -6.66532,-3.09317 -17.01931,-11.69703 z"
         style="fill:#cccccc"
         inkscape:connector-curvature="0" />
      <path
         sodipodi:nodetypes="cscccssscc"
         inkscape:connector-curvature="0"
         id="path3028"
         d="m 374.22419,-335.74074 c -62.29631,0 -62.31176,0.0134 -65.125,2.65625 -4.73437,4.44771 -3.09396,11.15587 3.28125,13.5 1.00291,0.36878 29.4224,0.68725 63.1875,0.71875 40.47472,-0.72266 86.08511,-0.0418 120,0 46.46648,0.0434 61.88383,-0.28536 63.34375,-1.40625 5.27767,-4.05202 5.293,-11.37152 0.0313,-14.1875 -1.60855,-0.86087 -23.12648,-1.28125 -64.71875,-1.28125 -40.07974,0 -54.33833,0.0148 -60.1875,0.71875 -23.81775,-0.65993 -41.40314,-0.71337 -59.8125,-0.71875 z"
         style="fill:#cccccc" />
      <path
         sodipodi:nodetypes="scsccccccsccs"
         inkscape:connector-curvature="0"
         id="path3026"
         d="m 66.63044,-398.95949 c -101.317852,0.0335 -96.094052,0.55266 -98.875002,6.65625 -0.7988,1.75313 -1.46875,3.89997 -1.46875,4.78125 0,2.33811 4.80209,8.06839 7.78125,9.28125 1.41205,0.57484 66.42288,0.91046 144.468752,0.78125 l 141.875,-0.21875 c 48.66526,0.0577 92.54458,0.27785 132.125,0.21875 l 141.875,-0.21875 3.21875,-3.21875 c 5.11877,-5.11909 3.72434,-13.78307 -2.71875,-16.71875 -2.11728,-0.9647 -43.22403,-1.34375 -144,-1.34375 -94.46379,0.96756 -203.10962,0.009 -274,0 -19.15563,0 -35.80727,-0.005 -50.28125,0 z"
         style="fill:#cccccc" />
      <path
         sodipodi:nodetypes="ccsccccccsccccc"
         inkscape:connector-curvature="0"
         id="path3030"
         d="m 194.03669,-457.30324 -2.875,3.0625 c -1.88504,2.00653 -2.875,4.54592 -2.875,7.28125 0,2.73535 0.98996,5.24345 2.875,7.25 l 2.875,3.0625 76.3125,0 c 50,0 100,0 150,0 l 76.3125,0 3.34375,-2.875 c 2.55119,-2.19443 3.34375,-3.9574 3.34375,-7.4375 0,-3.48012 -0.79256,-5.27432 -3.34375,-7.46875 l -3.34375,-2.875 -76.3125,0 c -50,0 -100,0 -150,0 z"
         style="fill:#cccccc" />
      <path
         inkscape:connector-curvature="0"
         id="path5126"
         style="font-size:48px;font-style:normal;font-variant:normal;font-weight:bold;font-stretch:normal;text-align:start;line-height:125%;letter-spacing:0px;word-spacing:0px;writing-mode:lr-tb;text-anchor:start;fill:#cccccc;fill-opacity:1;stroke:none;font-family:Gentium Basic;-inkscape-font-specification:Gentium Basic Bold"
         d="m -72.958881,-316.07526 c -2.212424,1.24413 -3.484451,0.16268 -3.468476,1.67103 -0.430243,-0.44877 -1.914427,-0.007 -3.212979,1.43481 0.35603,-0.0671 0.329344,0.57021 -0.820808,1.78373 -1.686357,0.81913 -1.264363,-1.0351 -2.180604,0.15104 -2.428362,0.29676 -2.02371,-1.63356 -3.719618,-1.05404 -1.770195,0.52459 -1.88088,-0.18103 -3.146568,-2.27905 -0.420442,0.15093 -1.865199,-0.78437 -2.097104,-3.3173 -0.176319,-0.22868 0.08828,-1.39172 -0.974563,-3.6832 0.599125,-0.64775 0.57166,-5.59293 0.08406,-6.61213 -0.157262,-0.55874 -0.184268,-1.72481 1.594278,-1.80685 2.180977,-1.66373 2.855439,-3.06236 5.24305,-4.54364 0.36065,-0.82197 1.742629,1.01234 3.60855,-0.18766 1.455224,-0.74639 3.859837,0.15269 3.547061,-0.48229 1.801352,-0.28065 2.630131,1.93882 2.441898,1.22828 -0.522845,-0.19372 -1.937107,1.84724 -0.337026,1.56778 -0.666739,0.14898 1.789366,0.63339 0.963667,0.41566 1.097781,0.64358 0.597034,0.64839 1.723922,1.12003 0.389334,1.43042 -1.832677,-2.27236 -1.027799,-1.08884 0.419323,1.49104 -0.272079,0.2886 -1.156558,1.68334 -1.282153,0.0831 0.832824,2.68964 -0.477443,2.82774 0.840135,1.0977 -0.09615,2.26632 0.361379,1.55412 -1.331214,0.17799 -1.993764,-0.82879 -1.060349,-1.30864 -0.899525,0.79427 -1.614186,-1.0263 -0.494718,-0.5941 -1.650267,-1.14056 -2.329991,-0.56128 -1.89961,-1.17324 0.437691,-0.67239 -1.339066,-3.54208 -2.002107,-2.49545 -0.129966,-1.06259 -3.472995,0.94503 -4.306749,0.0732 0.39359,-0.32187 0.777711,2.04703 -0.848228,3.10439 0.0803,1.73073 -2.903586,-0.17833 -2.056742,1.24737 -0.760826,2.1692 2.434861,4.07358 1.339911,5.09821 0.05948,2.44853 -2.344127,2.01624 -0.861268,3.2657 1.062171,1.91805 -0.36929,-0.33441 1.36397,0.51776 1.014059,1.78367 2.193802,4.38351 3.240117,3.58004 1.633308,-0.45287 1.018065,-1.40588 2.938158,-0.87531 1.476403,-0.60054 1.013238,1.77807 1.301143,0.53702 1.206546,-0.95665 0.67393,-0.86689 0.225338,-1.80907 1.604634,-0.6176 0.824801,1.8001 2.550487,1.04227 1.236173,0.66391 -1.755797,-1.47827 0.106137,-2.69698 0.704991,0.97107 4.488471,2.21026 3.372025,2.65021" />
      <path
         inkscape:connector-curvature="0"
         id="path5128"
         style="font-size:48px;font-style:normal;font-variant:normal;font-weight:bold;font-stretch:normal;text-align:start;line-height:125%;letter-spacing:0px;word-spacing:0px;writing-mode:lr-tb;text-anchor:start;fill:#cccccc;fill-opacity:1;stroke:none;font-family:Gentium Basic;-inkscape-font-specification:Gentium Basic Bold"
         d="m -64.279298,-332.05819 c -1.322863,-0.009 -0.982201,3.35278 -1.121927,2.22034 0.340306,1.10726 0.365716,-3.14372 -0.589447,-2.09355 -1.43379,-0.33708 0.496876,2.31721 -0.171092,1.21242 -1.401438,-0.41474 -2.669786,0.63686 -2.955582,-0.55921 -1.170413,0.26483 -0.786818,-13.3079 -1.915503,-13.71542 -0.26854,1.07644 2.871578,1.35958 1.981434,1.51061 -0.368652,0.87358 1.246348,-3.32023 1.569746,-2.26143 0.932082,0.91393 0.909927,2.45772 0.468352,1.46784 -0.725813,0.25746 -1.887477,-1.52792 -0.328923,-1.60843 0.854377,0.97513 2.723772,-0.18825 2.58076,0.86186 0.658305,1.04552 -0.01595,-1.26786 0.33063,-0.12282 -1.107966,0.46088 -0.05069,-2.15228 -0.09378,-0.95305 1.190963,-0.14699 0.249095,15.53218 -0.817086,16.08287" />
      <path
         inkscape:connector-curvature="0"
         id="path5130"
         style="font-size:48px;font-style:normal;font-variant:normal;font-weight:bold;font-stretch:normal;text-align:start;line-height:125%;letter-spacing:0px;word-spacing:0px;writing-mode:lr-tb;text-anchor:start;fill:#cccccc;fill-opacity:1;stroke:none;font-family:Gentium Basic;-inkscape-font-specification:Gentium Basic Bold"
         d="m -49.375803,-330.95694 c -0.205829,-1.0773 -2.411756,0.17883 -1.935821,-0.19232 -0.875773,-0.86821 1.354144,2.95795 0.171184,2.60194 0.752374,0.98293 -1.527636,-1.19596 -2.401702,0.55929 -0.541476,-0.40131 0.479557,0.19871 1.412777,1.75696 0.406041,1.12922 7.696641,0.0243 8.325691,1.04617 0.951385,-1.04378 0.620996,-0.83138 -0.372526,-1.41359 1.299857,0.11929 -0.37175,2.67088 -0.879183,1.25531 1.180626,-0.68342 0.803115,-1.645 -0.214141,-3.04116 1.074578,-0.64055 -0.965077,-0.32665 -0.584306,-1.82616 0.624497,-1.29654 0.239678,-0.26703 0.414351,0.32836 0.655523,-0.55257 -3.098913,-0.12084 -2.703413,-0.25604 m 10.77699,5.96196 c 0.973849,0.60112 -2.664043,-1.4552 -2.932956,-0.0677 -0.119754,1.37861 -0.767294,0.34392 -0.55211,1.59354 -1.456016,0.53578 -0.743019,0.006 -1.072909,-1.03824 0.296463,-0.87773 -0.320035,0.93392 -0.292504,2.19513 0.781664,0.91049 -12.136602,-2.54364 -11.832351,-1.38285 1.212421,1.3367 2.064995,4.69266 1.817988,4.56078 1.36824,1.44588 0.627711,2.8719 0.724769,2.42907 -0.43644,1.43791 1.641811,-0.17025 2.912055,1.2779 0.65652,-0.82337 1.446556,-0.82278 2.625501,0.34935 0.791716,1.15998 -0.21857,-1.6506 1.383386,-1.35078 -0.0061,1.03954 -0.491243,0.55889 0.02661,-0.84416 -0.625335,-0.45995 2.538967,1.96046 2.023345,1.42842 1.246306,0.67858 1.219369,-4.38121 2.517612,-3.88238 0.86283,0.96803 1.410761,-0.72231 0.718346,0.29682 -0.873277,0.78254 0.09513,1.41265 0.933534,2.5377 -0.570098,1.13445 -0.553843,-0.28223 -1.655529,-0.24592 -0.802934,0.93812 0.621149,1.63376 0.261717,0.56164 -2.156224,0.56674 -3.272168,1.44046 -2.954583,1.89384 -2.059272,0.70448 -0.834863,0.0514 -0.571408,1.00396 -1.724197,-0.36721 -0.09873,1.22891 -1.926447,1.9568 0.152578,0.89425 -5.167195,0.42958 -4.924426,0.2128 -0.446048,-0.81358 -3.411514,-1.51957 -3.795498,-1.15954 -1.761556,0.51387 -2.303717,-1.15633 -2.534373,-1.12285 -1.919027,-1.56037 -2.950256,-3.98623 -2.6495,-4.4661 0.02337,-2.43152 1.993895,-1.7089 0.795424,-3.42572 -0.595733,-3.16667 -1.171297,-5.95619 -0.30604,-6.4144 1.333785,-2.75272 2.871277,-2.91794 5.659471,-3.86535 0.913406,-1.38441 -0.970218,0.56112 -0.481316,-0.90448 1.22789,-1.24698 3.211163,0.58758 3.540532,-0.78006 0.474355,-1.39987 -1.159589,-3.00179 -0.07765,-2.01497 1.744459,-0.46534 2.825722,1.84799 2.219528,1.83766 0.339292,-0.13879 1.47062,-0.40415 3.253317,-0.86622 0.629551,1.62422 2.962471,0.28705 2.827363,2.0208 1.388633,1.88096 2.247684,2.44249 1.556905,4.20675 0.428572,2.35427 1.552536,3.0952 2.606668,3.78735" />
      <path
         inkscape:connector-curvature="0"
         id="path5132"
         style="font-size:48px;font-style:normal;font-variant:normal;font-weight:bold;font-stretch:normal;text-align:start;line-height:125%;letter-spacing:0px;word-spacing:0px;writing-mode:lr-tb;text-anchor:start;fill:#cccccc;fill-opacity:1;stroke:none;font-family:Gentium Basic;-inkscape-font-specification:Gentium Basic Bold"
         d="m -17.854098,-317.36883 c 1.177809,1.33899 -1.672122,1.25443 -1.818295,0.86767 -1.52557,0.70272 -0.388078,2.60887 -0.266026,4.15203 -1.722636,0.69053 -1.63301,-0.5103 -1.137497,0.0958 -1.079424,-0.80056 -2.589932,0.52092 -4.447052,1.02184 -0.694386,-1.02811 -0.302621,0.45402 0.204707,0.85051 -1.378371,0.99655 -2.211286,-2.78627 -3.09426,-1.66591 -1.691641,0.14146 -0.512431,0.86772 -2.27741,0.52847 -0.167055,-1.18989 -1.662184,-0.54901 -1.104003,-0.96681 -0.97908,-1.28226 -0.334538,0.80054 -1.173551,1.75961 -0.874697,-1.3854 -2.822071,-1.06615 -2.273299,-0.79328 1.065201,-0.29259 1.065038,-2.38251 1.305848,-1.72147 -1.237966,-0.36963 -0.655571,-1.20019 -1.238024,-0.86298 0.159405,-1.89447 -1.423628,-3.78103 -1.068302,-3.38294 1.24411,-1.04929 0.653807,-2.09392 1.894626,-3.18559 0.949363,0.73397 2.583056,-0.33349 1.512398,0.20844 -0.556724,-0.1371 -1.759354,3.68258 -0.324043,3.82306 0.0049,1.81833 3.578022,1.98243 3.629351,1.33822 -0.595342,0.95889 -1.836554,-0.84335 -0.483259,0.36386 1.556365,1.00666 3.274574,-0.66445 2.893762,-0.0884 1.428069,1.1611 2.752758,1.38814 2.409535,1.78668 -0.348057,-1.20569 -0.806387,-1.91524 0.221765,-2.23392 -0.769467,0.29583 0.869851,-0.44687 1.17766,-1.96452 0.881617,-0.61855 -2.094167,-1.23929 -3.293269,-2.65814 -1.693149,-0.7219 1.020111,-1.40137 -0.851317,-1.79311 -1.822168,-0.71681 0.442551,-1.17092 -0.96866,-0.56589 -1.85484,-0.3864 -4.264531,-1.26195 -3.756708,-1.36112 -1.573265,-1.16135 -0.942655,0.43802 -0.516585,0.69741 0.0018,0.58273 -1.258267,-1.52017 -0.516525,-2.65744 0.185763,-1.67813 -1.396693,-2.7015 -2.505053,-2.99158 1.163918,-0.67669 1.169335,-0.75238 2.612824,-2.21794 -0.484438,-1.48933 -0.807509,-2.28864 -0.377813,-1.67257 0.533985,-1.72111 1.076414,-2.30579 3.116506,-1.98855 1.289895,-1.4613 3.467924,2.25172 3.49163,1.65096 -0.318088,-0.67821 0.751545,0.48433 2.553288,0.17379 0.570461,1.27238 1.19714,-1.31948 0.622222,-1.17603 0.0051,1.18377 2.996296,-0.84457 2.407572,-0.195 0.760532,1.39666 0.313578,0.30662 0.614183,1.7864 -0.963499,0.64579 2.161267,1.89655 0.943977,2.02342 -0.0641,-0.76236 2.407743,0.48539 1.186092,0.49571 0.344358,1.64451 0.585868,0.2799 -0.514449,1.60802 -1.39951,0.43798 -2.956444,1.22794 -2.762928,0.34001 0.250605,-1.17354 -1.852878,-0.92665 -1.809994,0.27258 -1.590635,-1.37811 1.716056,-3.36456 -0.218304,-4.08136 -1.402208,0.26265 -2.188372,-0.11106 -2.453623,-1.0348 -0.49351,-1.11482 0.09737,1.98736 -1.614891,2.33511 -1.060906,1.49086 -2.435841,-1.54133 -1.509472,-0.12231 -1.161465,0.80171 -0.339845,3.50207 -0.980989,3.08903 1.397738,0.0404 2.848696,0.80051 2.237479,1.69845 0.924426,-0.76634 2.66496,-1.76977 2.143947,-1.17797 -0.346384,-0.2912 2.098272,1.34968 1.974384,1.05665 1.666482,1.01514 1.9752,1.08591 1.532947,1.07202 1.847626,0.69734 1.970069,1.3862 1.370765,1.5465 -0.04712,-0.54267 2.069105,1.21426 1.213635,1.82775 -0.795155,0.26256 1.216431,2.2106 0.384462,3.95034" />
      <path
         inkscape:connector-curvature="0"
         id="path5134"
         style="font-size:48px;font-style:normal;font-variant:normal;font-weight:bold;font-stretch:normal;text-align:start;line-height:125%;letter-spacing:0px;word-spacing:0px;writing-mode:lr-tb;text-anchor:start;fill:#cccccc;fill-opacity:1;stroke:none;font-family:Gentium Basic;-inkscape-font-specification:Gentium Basic Bold"
         d="m 1.5759755,-314.88456 c -3.0946599,0.86229 -5.9065032,2.05441 -7.0514853,3.92134 -2.2306588,1.58801 -3.408996,-1.76722 -3.7282548,-0.68045 -0.3301691,1.15032 0.00361,0.68605 -1.1671784,1.48099 -1.428972,-1.11164 0.4419376,-2.26616 -0.374017,-1.65358 -0.301996,0.66107 -1.947725,-1.81262 -2.605311,-3.74368 0.659631,-0.0484 1.426946,-0.66074 0.759521,-0.75723 -1.181701,-0.20876 -0.923154,-13.93773 -1.469838,-15.00597 -1.198031,0.0687 -1.8927,0.78215 -1.409972,1.88077 1.191144,-0.14551 -2.023556,-2.12332 -1.339849,-3.1095 0.594514,1.04238 2.821484,-0.74628 2.568766,-1.91937 1.172957,0.25332 2.912432,-0.35716 2.18874,0.60006 -0.09633,-1.19613 -2.282997,-6.51226 -1.916992,-5.36944 0.572043,1.05488 4.6100786,-2.16102 5.5328496,-1.39388 0.8032627,-0.8915 0.3248473,-0.42791 0.6090989,-1.59376 0.533075,-1.07509 1.3372308,7.62826 1.4781715,8.81995 -1.0838539,0.51504 5.96523365,-0.0555 5.0276297,-0.80443 -0.7537165,-0.93376 0.79578962,1.8306 1.5201137,2.78734 -0.0423623,1.46162 1.2924516,1.33544 0.31344908,0.70386 -1.2662086,-0.27541 -1.92865238,1.44208 -2.20355298,0.52462 -1.211591,0.93967 1.74760541,-0.20344 0.91416178,1.04588 -0.16973036,1.41831 0.55233625,-0.70805 -0.40834198,-1.48913 0.63213132,-0.97015 -1.0533571,1.30888 -2.5496243,1.17738 0.1165692,-1.22583 -0.6504526,1.02703 0.071575,0.4287 0.8394658,-0.0413 -1.7119319,-2.56193 -2.2957581,-1.42204 -1.0652799,0.9455 -0.6963896,0.50984 -0.09667,1.13942 -0.6680037,0.99688 -3.8611634,-1.34234 -2.6658793,-1.44862 -1.0718551,0.53956 1.1896621,11.43395 -0.010223,11.41733 -1.0180794,1.43213 1.3779566,0.11015 0.3607771,1.12631 0.7557377,1.54776 0.6213554,1.74869 1.1617707,3.23445 0.5867279,1.45977 2.4407269,-1.91643 1.5181182,-1.44181 -0.3671534,1.16977 -2.0536045,-0.2682 -0.7522758,0.38838 1.3270994,0.58837 2.9908208,2.51584 2.7613304,1.39055 0.7722744,1.04592 -0.4424048,-1.09 -1.1238421,-0.67588 -0.7497013,0.24875 0.9088885,-1.28178 2.4959018,-1.97405 1.2936315,0.6657 1.2457139,0.10721 0.7041948,-0.32506 1.06378527,0.5553 3.4313335,0.89959 3.2203656,2.0809" />
      <path
         style="font-size:48px;font-style:normal;font-variant:normal;font-weight:bold;font-stretch:normal;text-align:start;line-height:125%;letter-spacing:0px;word-spacing:0px;writing-mode:lr-tb;text-anchor:start;fill:#cccccc;fill-opacity:1;stroke:none;font-family:Gentium Basic;-inkscape-font-specification:Gentium Basic Bold"
         inkscape:connector-curvature="0"
         id="path5136"
         d="m 38.787451,-315.03865 c -3.278471,1.67359 -1.413396,2.26925 -4.635366,3.84204 -2.744892,-0.50879 -3.244747,-1.80628 -3.845851,-4.23889 -1.199123,-1.54912 -1.106474,1.92405 -1.213136,1.1546 -2.51576,3.40607 -6.103154,4.60913 -10.088467,3.38582 -5.124554,-1.69777 -4.54074,-7.6869 -5.154612,-11.67749 -0.338806,-4.36862 4.973313,-11.31412 9.994031,-10.66082 1.412482,-1.27334 4.050047,0.19403 6.872599,1.64281 -0.300897,-2.31121 0.503822,-9.07797 -0.834677,-12.70206 -1.073446,-2.30835 -1.670424,-0.49229 -3.146471,-1.98179 -1.322864,-0.73285 -0.616382,0.65558 0.577225,-0.28325 1.627442,0.74505 4.765228,0.24836 8.127606,-0.24161 -0.836381,0.4369 -0.858875,-1.50738 0.159692,-0.86581 0.803094,10.67092 2.809161,20.13149 1.688058,30.1412 0.814127,2.07546 -0.748338,3.63876 1.705586,2.8082 -0.18912,0.63596 0.366329,-1.98997 -0.139096,-0.6895 -0.428903,-1.04205 0.886779,1.03349 1.639966,0.14711 1.136327,0.38569 0.738683,2.5956 -0.338989,2.06775 m -9.466403,-3.58221 c 0.223721,-2.2351 -1.319677,-9.51885 -1.38118,-11.73449 -2.57468,-2.30739 -3.495012,-3.75542 -7.254408,-2.47765 -3.172201,2.4908 -1.453659,5.09204 -1.368856,8.97574 -1.099984,3.33999 -1.366593,6.38517 2.420386,6.67696 1.175265,0.99405 7.463485,-1.79776 8.507691,-2.26505 0.825618,-0.87083 0.515912,0.17472 -0.565303,0.69527" />
      <path
         style="font-size:48px;font-style:normal;font-variant:normal;font-weight:bold;font-stretch:normal;text-align:start;line-height:125%;letter-spacing:0px;word-spacing:0px;writing-mode:lr-tb;text-anchor:start;fill:#cccccc;fill-opacity:1;stroke:none;font-family:Gentium Basic;-inkscape-font-specification:Gentium Basic Bold"
         inkscape:connector-curvature="0"
         id="path5138"
         d="m 65.527437,-314.18378 c -3.168115,0.9126 -1.823698,1.33159 -5.240549,1.97108 -1.445338,-0.78014 -2.076894,0.27171 -2.008826,0.25844 -0.372035,-1.74704 -0.99653,-5.80273 -1.314551,-3.6229 -0.991147,1.67046 -4.708296,3.36355 -6.764072,3.96506 -1.641138,1.17203 -4.179051,-0.30456 -5.389974,-3.27601 -0.0067,-2.42597 -1.193196,-3.98119 -0.183852,-6.054 -1.071436,-2.19477 -0.9944,-6.00248 0.03041,-9.06488 0.05036,-0.31415 -2.647532,0.68178 -4.361514,-0.22287 -0.57919,-1.52813 2.034572,-3.85086 1.228883,-3.43872 2.605712,1.0038 2.174021,0.33867 5.731714,-0.97134 0.569413,1.54673 1.192223,1.204 1.592317,2.79673 -0.811954,3.91297 -0.36927,9.12154 -0.788369,12.80071 -1.02114,1.83103 1.090631,4.00062 3.744262,4.81426 3.570584,0.64986 4.737254,-1.13321 6.574245,-3.76868 1.040337,-1.33885 0.466918,-1.17068 -0.543389,-2.12549 1.169661,-3.1634 -0.934097,-6.01852 -1.41068,-8.21036 1.383816,-1.49209 -2.091291,-2.93013 -2.478762,-2.06639 -0.598059,1.3909 1.234869,0.55004 0.264865,-0.74767 -1.336986,-1.12403 1.560964,-0.99665 3.304801,-1.51905 2.916434,0.51759 3.276427,-0.0874 5.932332,-1.52746 -0.281265,-0.67582 1.373669,0.50981 0.722278,1.76746 -1.185853,5.32001 -1.320386,8.81416 -2.156249,14.92511 -0.882352,0.34033 1.805349,3.29007 2.150506,1.55344 0.188021,0.48506 0.794484,-1.10093 2.134049,-0.34722 -1.055588,-0.0721 1.112642,2.32915 1.474375,1.43704" />
      <path
         style="font-size:48px;font-style:normal;font-variant:normal;font-weight:bold;font-stretch:normal;text-align:start;line-height:125%;letter-spacing:0px;word-spacing:0px;writing-mode:lr-tb;text-anchor:start;fill:#cccccc;fill-opacity:1;stroke:none;font-family:Gentium Basic;-inkscape-font-specification:Gentium Basic Bold"
         inkscape:connector-curvature="0"
         id="path5140"
         d="m 99.949346,-322.29682 c -1.031802,-2.2707 -0.565259,-6.9427 -4.363776,-8.43405 -1.484834,-2.12146 -3.334862,-0.19212 -5.772789,1.34421 -0.962033,-0.42199 0.12653,0.62751 -0.788715,1.34379 0.174351,2.10691 1.959399,7.78447 0.850704,10.61952 0.965009,1.46792 2.671966,5.2864 5.642186,3.48672 1.241835,-0.15435 3.786185,-4.65029 3.80419,-5.58704 1.007214,0.35792 -1.110676,-0.65469 0.0892,-0.99923 m 5.354914,-3.91396 c -1.04183,3.30096 -1.6431,11.18494 -5.009695,12.69715 -2.469965,0.66599 -5.603515,-0.72318 -6.912977,-0.35014 -0.780223,-1.1389 -1.987847,-0.51559 -3.676304,-0.37501 1.171862,3.08541 -1.336308,7.6376 -1.223554,9.78666 0.0087,2.11869 1.972896,-0.28185 4.336356,-0.54724 1.195439,0.46578 0.651913,2.14975 0.0065,1.70843 -4.753089,1.07832 -8.399005,-0.93908 -11.859787,-0.0152 0.447179,0.54326 -0.99763,2.28773 -0.868256,0.52441 -0.102009,-0.76238 2.573639,-3.68786 2.955445,-3.83136 0.187754,-7.07531 -1.523437,-15.99926 -0.585775,-23.56255 0.738977,-2.91678 0.57959,-4.64291 -1.299434,-3.46155 -0.25305,0.62614 1.253231,0.64736 0.08924,0.39227 1.326662,-0.11537 4.302975,-0.79533 7.783627,-2.15525 -0.806351,0.2277 1.721041,-0.124 0.592935,-0.0461 -0.229446,1.96031 1.01388,2.3698 0.164849,2.37962 2.704924,-3.06378 4.287256,-4.65522 6.599785,-3.67743 3.495436,1.05952 7.352575,4.90948 7.861485,6.3912 1.78152,2.74115 0.18786,2.63461 1.29777,4.3127 -0.87038,0.8261 -0.0293,1.02282 -0.23157,-0.16001" />
      <path
         style="font-size:48px;font-style:normal;font-variant:normal;font-weight:bold;font-stretch:normal;text-align:start;line-height:125%;letter-spacing:0px;word-spacing:0px;writing-mode:lr-tb;text-anchor:start;fill:#cccccc;fill-opacity:1;stroke:none;font-family:Gentium Basic;-inkscape-font-specification:Gentium Basic Bold"
         inkscape:connector-curvature="0"
         id="path5142"
         d="m 114.56903,-314.16135 c 2.93996,-0.66323 3.55324,-4.17072 5.87439,-4.5392 -1.18414,-1.92099 1.67328,-3.26401 0.47391,-5.02952 -0.79606,-0.3257 -5.62033,1.90737 -6.29489,3.6956 -1.18233,-0.23187 -3.23005,2.00137 -1.81991,4.30299 -0.91904,0.53541 0.57189,1.59088 2.77076,1.87049 m 13.16802,-1.30949 c -1.14679,2.11084 -1.88708,3.7703 -5.1818,5.18941 -1.04252,-0.86823 -4.69202,-3.33977 -3.71485,-4.27625 -1.0212,0.25725 1.66804,1.20984 0.66111,1.07877 -1.78691,0.86587 -4.34309,2.58158 -8.14556,3.08569 -1.01436,-0.54798 -4.39155,-2.79944 -5.51423,-4.18648 0.47069,-0.87442 1.08718,-4.59737 1.54684,-5.05287 0.82753,-1.26767 3.2266,-2.42922 6.20186,-4.12813 1.51061,0.81506 6.46185,-1.00079 6.92214,-1.66871 -0.99807,-0.72642 -2.62033,-4.62075 -2.26091,-5.11142 0.59532,-2.16093 -2.03869,-3.01366 -4.23185,-1.37108 -1.48237,1.59191 -1.19505,0.75763 -1.69959,2.90314 -1.46088,1.91225 -2.80084,3.2822 -3.76305,2.49341 0.32489,-0.46424 1.38414,0.82669 -0.22575,-0.33532 -1.21491,-0.01 -1.45201,-1.63095 -0.33943,-1.31278 0.64362,-3.92376 2.69926,-4.22276 6.58838,-4.44347 3.64774,-0.76703 4.29555,-1.42818 7.93525,-0.35368 1.01641,-0.0318 4.1805,2.72307 2.99716,4.89682 -0.63099,5.02194 1.60623,7.90183 0.49359,11.58747 -0.84499,2.44185 2.37886,1.79398 2.57623,0.24494 1.93146,-0.60128 -0.15471,-1.88733 -0.4986,-0.28992 -1.03974,0.70013 -0.18575,2.60927 -0.74734,1.84884" />
      <path
         inkscape:connector-curvature="0"
         id="path5144"
         style="font-size:48px;font-style:normal;font-variant:normal;font-weight:bold;font-stretch:normal;text-align:start;line-height:125%;letter-spacing:0px;word-spacing:0px;writing-mode:lr-tb;text-anchor:start;fill:#cccccc;fill-opacity:1;stroke:none;font-family:Gentium Basic;-inkscape-font-specification:Gentium Basic Bold"
         d="m 150.96012,-334.0696 c -1.10624,0.0505 -0.0437,3.54568 -0.42785,2.75255 1.10906,0.78635 1.76496,0.885 0.79784,0.56336 -0.0946,1.68397 0.67984,-0.72066 -0.61528,0.13908 -1.22701,1.06876 -1.54512,2.83261 -0.52817,3.71139 -0.0375,1.75808 -2.84533,-0.0109 -2.05197,1.20715 -0.93722,1.3955 2.07267,-1.17553 0.76249,-0.70633 -0.9398,0.74618 -2.49963,-1.12861 -2.30424,0.0554 1.15299,-0.64163 1.73165,-0.30658 0.99555,0.17272 -0.61448,0.54001 -1.24983,-3.97165 -0.86034,-3.34349 -0.34653,-1.61326 0.51407,-1.49558 -0.7092,-0.94866 -1.30332,0.40355 0.23225,0.18115 -1.16181,-0.4525 -1.5108,0.0641 -0.84702,1.04692 -1.85188,0.15051 -0.80206,1.22476 -0.0889,3.54712 -1.22862,2.94109 -0.36154,1.5273 1.52254,-1.2903 0.35054,0.29552 0.6684,1.09081 -0.29132,2.88115 -1.88503,3.4947 1.06046,-0.56163 -2.28233,10.35417 -1.08256,10.37788 0.70551,1.20507 2.89914,-0.72562 2.47189,0.0718 1.48761,-0.61534 1.28074,2.27914 2.21764,1.4222 -0.17869,-1.18662 -2.22878,1.6463 -1.10803,1.21745 0.26339,1.17074 -12.46281,-0.32923 -12.80312,-1.47997 -0.96685,0.71078 1.56982,-0.77436 1.5055,-1.97263 2.56484,0.62104 1.47645,-0.95576 2.66883,-1.57517 1.06265,0.55746 0.0707,-10.38557 -1.12325,-10.5058 0.80862,-1.40226 1.16784,-1.4738 0.24076,-1.01908 0.40003,0.76045 1.00079,-0.0902 1.61358,-1.31137 -1.22168,-0.46347 0.72435,-1.98118 -0.0536,-1.13141 -1.25633,-0.24652 -2.34947,-2.30093 -2.06965,-1.22894 0.12494,-1.28625 0.91255,1.30721 -0.30231,1.74688 -1.30832,-0.12835 -0.28584,-3.01546 0.50276,-2.36434 0.41249,-1.09501 -2.63549,-0.25657 -2.10418,0.61085 0.14149,-1.15427 1.54037,0.51909 0.69502,-0.64068 1.14001,0.37467 -0.38918,-0.9832 -1.44905,-1.54593 1.03556,-1.31198 4.67356,1.28662 4.10502,1.05278 1.81855,0.11977 0.10852,-0.83918 -0.47571,-0.56346 -0.4691,0.51362 2.46951,-1.35921 1.78934,-1.41513 1.64499,0.29053 0.7035,2.09794 2.40749,1.29414 -0.66,1.0022 1.2979,-2.46299 0.9664,-1.30968 1.19664,-0.0897 0.22407,5.48867 1.42397,5.47313 -0.0807,0.48035 0.49437,-1.8813 0.20719,-1.53499 1.19558,0.46809 2.93599,-2.75407 2.44292,-3.65344 1.74932,-0.78104 0.89019,1.16124 0.43626,0.48699 1.81537,-0.54481 3.53015,0.93028 3.05335,0.58312 -0.0472,-1.01445 -0.58341,-1.59092 0.83822,-0.49239 -0.42693,-0.34461 3.27589,0.0766 3.3185,1.47856" />
      <path
         inkscape:connector-curvature="0"
         id="path5146"
         style="font-size:48px;font-style:normal;font-variant:normal;font-weight:bold;font-stretch:normal;text-align:start;line-height:125%;letter-spacing:0px;word-spacing:0px;writing-mode:lr-tb;text-anchor:start;fill:#cccccc;fill-opacity:1;stroke:none;font-family:Gentium Basic;-inkscape-font-specification:Gentium Basic Bold"
         d="m 167.07244,-315.07855 c -2.99873,2.26976 -3.12194,1.07518 -3.40803,2.11634 -0.73937,1.66351 -3.43914,-0.22842 -4.58416,0.92898 0.50805,-0.21857 0.23957,0.89745 -0.95487,-0.41588 0.55974,0.0808 0.13757,2.12519 -1.09365,0.6804 -0.0418,-1.66413 -1.58935,-2.09763 -1.03341,-2.01985 -1.36353,-1.29686 -1.36564,-2.47781 -0.50994,-2.73026 0.91235,-0.77949 -0.73752,-13.12331 0.31354,-13.70233 1.10729,-0.46251 -6.18589,-0.8512 -4.99162,-0.96826 1.10638,0.46468 0.75423,0.28102 1.35901,-0.75543 -0.79597,-0.89801 2.06817,-0.62624 1.93796,-1.81915 -0.3813,-1.13782 0.17374,1.31538 -0.66155,0.45382 0.33512,-1.15226 0.63569,-6.29891 1.81169,-6.06008 1.10549,-0.46678 1.98921,-3.0145 2.93092,-2.27074 -0.99314,0.67355 3.69801,-1.05856 3.12234,-0.006 0.73151,-0.95126 1.04923,8.21146 -0.002,8.79106 0.81109,-0.88439 5.06784,-1.71754 6.26636,-1.77706 -0.80484,-0.89007 0.63264,-0.33282 0.85807,0.84582 1.01688,-0.0508 0.14569,2.94402 0.47431,2.17297 0.17369,1.42057 0.50435,1.56234 -0.7829,1.29741 -1.32375,0.73363 -3.5197,-1.33733 -2.66899,-0.57429 -1.23691,-0.39058 0.95697,1.98633 1.63179,1.23005 0.12404,-1.25256 -1.67019,-2.45519 -1.50926,-1.43972 -0.13389,1.09722 -1.1943,0.71848 -2.4077,1.48331 0.0531,1.03317 0.2854,-0.75875 -1.31245,-0.94737 0.80478,0.058 0.51768,-1.14871 1.06805,-0.44532 0.42902,1.12069 -2.58158,1.07113 -1.46964,0.61993 -1.13816,-0.38023 -0.54984,10.36296 -0.19445,11.50912 -1.19233,0.93244 -2.65501,2.44251 -1.86508,2.0276 -1.09375,0.37376 0.29848,-1.55205 0.42459,-0.009 0.64209,-0.78243 0.34314,3.42336 1.03728,2.47116 -0.3781,-0.88186 1.01232,-0.44757 0.19772,-0.89988 -0.66632,0.73629 1.75902,-0.2675 0.87104,-0.12443 1.48547,0.19068 2.37463,0.45322 1.71251,0.90416 0.0765,-1.28315 2.21825,0.42362 1.66776,-0.40264 0.72394,-1.41329 -0.51206,-2.10421 0.86249,-1.50229 1.06396,0.55495 1.96754,0.47348 0.89195,1.00555" />
      <path
         inkscape:connector-curvature="0"
         id="path5148"
         style="font-size:48px;font-style:normal;font-variant:normal;font-weight:bold;font-stretch:normal;text-align:start;line-height:125%;letter-spacing:0px;word-spacing:0px;writing-mode:lr-tb;text-anchor:start;fill:#cccccc;fill-opacity:1;stroke:none;font-family:Gentium Basic;-inkscape-font-specification:Gentium Basic Bold"
         d="m 179.51313,-314.44493 c 0.38085,-1.19706 -2.52259,0.29802 -1.29358,-0.55712 -0.77603,-0.5481 4.07635,-0.64069 3.43088,-0.20718 1.57885,-0.4424 -2.21492,-0.44248 -0.68493,-0.19482 -0.54051,0.29606 2.30615,-1.83266 3.2156,-1.17494 0.0756,1.19762 0.45262,-4.12785 -0.41322,-4.95871 -2.0846,0.50867 -0.1595,0.23326 -1.52057,-0.57018 -0.26296,1.27966 -1.67279,-1.49319 -3.18567,-0.80447 0.49571,0.91065 -0.45313,0.37688 0.35065,1.0613 0.91833,0.36747 -2.70519,1.65667 -1.80548,2.33286 -0.66435,1.57818 -1.52223,0.75078 -2.13673,0.0762 -1.10957,1.30612 0.0893,1.01184 0.36917,2.83499 1.16214,0.83027 0.46425,1.05189 -0.40376,0.74553 -1.00905,0.6303 1.41078,0.22714 2.82833,0.37637 -0.95487,0.0428 0.77737,0.35732 0.34949,-0.55474 1.1367,-0.73044 -1.71485,1.98493 -0.32761,2.17953 m 13.17536,-0.68101 c -1.82091,0.74229 -0.80841,1.17591 -1.25344,0.41378 0.49355,0.49519 -1.02593,1.86287 -0.49351,1.92237 -0.4178,1.47886 -3.12589,-1.05329 -2.68506,-0.17777 0.61085,-0.2417 -1.67391,-0.89168 -1.75991,0.29234 0.56246,-0.37286 -0.90652,-0.42013 -2.22954,-0.3021 0.0797,-1.76023 -1.09389,-2.15337 0.0245,-3.41635 -1.45425,1.63899 0.10525,1.95176 -1.58507,1.73184 -1.18884,1.56606 -1.30128,2.07117 -1.9576,1.16815 -1.59968,1.02285 -2.47104,2.20186 -3.18328,1.13128 0.57081,-0.0921 -0.59748,-1.04713 -1.56757,0.057 0.14659,0.89188 -0.32648,-0.1398 -2.12638,-0.0642 0.47951,-0.68786 -1.40647,0.17894 -1.09092,0.60698 -0.004,0.63964 -0.26019,-0.59928 0.2618,-2.13351 0.73651,-0.10475 -2.08626,-4.45955 -1.81408,-4.19708 0.0781,-2.25994 -0.9046,0.0854 -0.26525,-1.81946 0.16693,0.42896 0.69047,-1.16407 1.96314,-2.72078 -0.75462,-0.7799 -0.005,1.86949 0.83666,0.38015 1.59839,-0.8426 3.52163,-0.77517 3.99982,-2.2558 1.17028,-1.47829 1.13569,-1.50851 1.40615,-1.09064 2.12695,-1.1316 3.35826,0.55326 4.50408,-0.66887 0.6804,-0.98846 0.97019,-0.23612 1.74936,-1.14875 0.38929,-1.61944 -0.51203,-1.57828 -1.53227,-1.22194 -0.7974,0.55022 0.12717,0.35687 -0.49054,-1.07715 0.9532,-0.12473 0.47608,0.33289 -0.81541,-0.61609 0.57475,-0.88461 -1.93941,-3.15145 -1.62576,-2.3662 0.13641,1.08558 0.12234,2.17105 -1.40853,1.98929 0.56918,-0.59998 0.27572,-0.35332 -0.96903,0.62758 0.79963,-0.27121 0.23622,-0.25656 0.40523,-1.03214 -0.0902,1.55758 -0.87219,4.31045 -0.60384,3.59979 -0.94925,-0.61968 1.26402,-0.81146 0.30352,0.30748 -0.0334,1.31796 -0.3463,-1.47061 -0.32543,-0.19295 -0.57832,-1.04697 -2.50275,0.16669 -2.08788,1.09947 0.62185,-0.32439 -0.94173,0.38971 -2.54392,0.15318 -1.61848,0.38008 1.94036,-0.54001 0.63064,-1.21024 0.69078,-0.53376 -1.62434,0.78872 -0.62397,0.34082 0.59087,-1.04444 -2.61469,1.14447 -2.07805,0.0711 -0.45679,-1.80244 0.7223,-2.93678 1.83665,-2.57643 -0.38192,-0.92822 2.01614,-0.51896 2.59744,-2.20504 0.5268,0.4565 2.83689,-1.83447 2.90434,-2.2443 0.39061,0.46049 6.00074,-1.04153 6.12218,-1.28307 0.0364,0.59571 1.40339,0.86259 1.49384,2.12503 1.31132,-0.79531 2.30561,-0.3196 2.77182,-1.00352 0.38601,1.693 -0.75206,3.87834 -0.54409,3.36656 1.44931,0.72767 2.7784,-0.0147 1.61867,0.47402 -0.13163,-1.19276 1.67081,11.65199 1.00232,12.64855 1.18924,0.81649 -1.30525,0.29175 0.0667,0.57264 1.02281,-0.56484 -1.14499,1.97717 -1.51134,0.96693 0.77005,-1.00175 1.35943,-0.10877 2.65747,-0.28889 1.05929,0.73744 -0.01,0.91722 0.3189,-0.31716 -0.32067,1.04736 -0.47159,1.16225 0.7533,0.43012 -0.95794,-0.32913 0.80578,-0.923 -0.006,-1.4669 0.79142,0.90203 -0.25559,0.62264 -0.40938,1.81274" />
      <path
         inkscape:connector-curvature="0"
         id="path5150"
         style="font-size:48px;font-style:normal;font-variant:normal;font-weight:bold;font-stretch:normal;text-align:start;line-height:125%;letter-spacing:0px;word-spacing:0px;writing-mode:lr-tb;text-anchor:start;fill:#cccccc;fill-opacity:1;stroke:none;font-family:Gentium Basic;-inkscape-font-specification:Gentium Basic Bold"
         d="m 207.53493,-326.45636 c -0.81412,0.0848 -0.16563,-2.96524 0.21175,-2.6113 -1.17349,0.003 0.19073,-2.56093 -0.32697,-1.88176 -1.45165,0.0736 -0.30177,0.40683 -1.11186,-1.07316 -0.77798,0.8733 -2.67933,1.39008 -3.84061,0.24673 -1.08946,0.97555 -1.59291,1.78781 -0.95877,1.37725 0.55616,-0.54489 1.9539,1.24147 0.74741,0.78323 -1.09841,-0.56075 0.0421,-1.24758 -0.5619,0.43577 0.10286,-0.61345 0.77917,0.62694 -0.31703,1.84949 -0.91453,0.004 0.15423,1.80923 -0.31644,3.51571 0.96588,1.6008 -0.0526,0.83273 1.47164,0.95481 1.19432,1.42059 1.88443,-0.31184 1.37291,0.42908 -0.28473,-0.50349 -0.43107,-1.22581 0.82619,-0.0993 -0.65167,-0.46843 3.51987,1.68731 2.75214,1.26697 1.5502,0.22098 -0.12476,-0.33819 -0.98659,-0.45072 -0.72128,-0.96874 1.84972,-3.91792 1.89116,-3.25811 -0.81309,0.11561 -1.42721,-1.62902 -0.33768,-1.86045 m -2.40574,14.98708 c -1.93113,0.11832 -0.74087,1.84574 -2.59132,1.83847 -0.72076,-1.32326 -2.52641,-2.59299 -2.02301,-2.19808 -1.70201,-0.18791 0.0245,2.70424 -1.59715,3.11617 0.22413,-0.63046 -1.58905,0.8702 -0.59336,1.23613 -0.2703,-0.87 -0.96875,-2.5722 -0.77504,-1.14987 -0.4573,1.39326 -0.37977,2.43827 -0.45818,1.47521 1.01602,-0.12289 0.17644,3.14391 0.86364,2.45399 0.34423,1.68347 -0.44451,0.86693 1.40283,0.98484 -0.24714,-0.41229 0.71488,-0.56284 2.28879,0.63742 0.52766,-0.91467 3.23194,1.43724 3.25949,0.82992 -0.26795,0.15607 3.02259,-3.18257 3.84218,-2.22607 1.61376,-0.96228 1.10644,-0.9153 0.42753,-0.86592 -0.66968,-0.81412 1.23016,0.0474 2.13486,-1.43724 1.1487,0.25837 0.65012,1.05333 1.04866,-0.62543 -0.67833,-1.28678 -0.87715,-1.73935 -0.26025,-1.10555 -0.98848,-1.1461 -1.89758,-2.53096 -2.38894,-1.5986 -1.01874,0.77542 -0.76264,0.64106 -1.24183,1.572 -1.96327,-0.14331 -1.49431,-0.32721 -3.88163,-0.81614 m 7.65832,-16.47797 c -0.59244,2.24671 -0.0982,2.04599 0.0796,4.01411 -1.5852,0.41059 -0.91781,2.07952 -0.89308,2.02226 0.15005,0.10567 -3.71044,2.49877 -5.07799,1.72108 -1.34653,-0.79659 -2.12416,1.42271 -3.85433,0.30366 -1.16939,0.2693 0.52406,-0.45046 0.80398,-1.61735 -0.004,1.59178 1.49854,1.99312 0.13635,2.48892 1.02911,0.1413 -2.34391,2.6966 -2.20157,1.59882 -0.47445,-0.9616 0.73725,-3.02583 0.74186,-1.68852 0.1891,1.3212 1.32134,1.38877 1.16767,0.43735 1.31946,0.84486 2.35959,0.63498 1.88774,0.53192 0.37329,-1.00857 0.48014,1.2482 2.09911,0.27316 0.64556,0.0305 3.75062,-0.52744 4.42154,0.89182 0.1323,0.86977 0.7936,0.66477 1.95901,2.24092 1.88399,0.75543 3.40003,1.28437 3.36091,0.7373 0.75928,1.71005 0.2056,1.85234 0.79151,3.66521 -0.0749,-0.46328 -0.97235,1.19767 -0.46828,1.0828 -1.52812,0.72731 -1.87464,0.11982 -3.24202,1.70901 -1.69794,1.15741 -0.35222,1.28204 -0.14696,2.52031 -1.35265,1.64166 -1.20079,0.40362 -2.57438,1.94345 -2.073,0.0985 -2.09023,-0.57677 -2.89704,0.8393 -0.82328,1.43691 -4.3505,-0.85311 -5.39889,0.34592 -1.25901,-1.11385 -0.94662,1.81369 -0.87716,0.98442 -1.73839,0.73961 -0.7771,-3.04242 -2.0152,-2.12249 -1.29698,0.89236 -2.56807,0.25091 -2.44435,-0.89848 0.10809,0.49445 -2.98212,1.52816 -4.09935,-0.0283 0.37809,-1.19378 -1.40698,-2.51458 -0.57721,-3.37468 -1.18397,-1.46615 -2.16672,-1.22878 -0.97519,-1.83647 1.19729,-0.31001 1.76191,0.51003 1.08559,0.96795 0.53655,-1.5495 1.82148,-3.56971 1.90089,-2.89314 0.3311,-1.6484 0.63801,1.65092 0.75445,0.0849 1.72815,-1.24786 1.6442,-4.1392 2.0634,-3.88692 -2.93535,-0.39 -1.68603,-0.57838 -1.81483,-2.58396 1.1856,-0.35722 1.25319,1.65611 1.28682,0.17964 0.63602,-1.39678 -0.72597,0.98432 0.60385,-0.0515 -0.40268,-1.33023 -1.10499,-1.19512 0.17563,-0.71435 0.88348,-1.62056 1.31709,-2.14901 2.63789,-1.60841 -0.13459,-1.17871 -2.30992,-1.54985 -3.7042,-2.96352 -1.86158,-0.0559 -1.43635,2.1933 -1.43638,0.53158 -1.67924,-0.80044 -0.86677,-1.35692 -1.97919,-2.94122 -1.47783,-0.62821 0.082,-3.14643 1.21392,-3.57598 0.91761,-1.91391 -0.88505,-0.24267 -0.77388,-2.3702 1.60283,-0.43314 1.2727,0.38563 2.91982,-1.33209 1.82873,0.0379 4.69936,-2.54015 4.82802,-3.44394 1.31037,0.74538 1.37669,-0.26584 3.71806,-0.95557 1.06581,-1.19992 1.69364,0.62227 1.70259,0.15901 0.99242,-0.90185 4.37017,2.4255 4.1754,2.18563 0.31375,0.41697 2.02195,-2.47651 2.41085,-1.84913 1.77662,0.65365 2.48703,0.69103 3.24753,-0.73736 -0.57393,1.05385 -0.44089,1.34738 0.65959,0.8689 -0.0769,-1.02773 -2.81279,2.17742 -1.98513,1.6621 0.68665,1.14594 1.91436,1.19916 1.97308,0.26328 0.11513,1.41321 -0.21311,-0.13808 -0.281,1.3097 0.6546,1.14664 -0.63293,1.03434 -0.4898,0.0559 -0.12128,-1.034 -0.4061,-0.97925 -1.81583,-0.0828 -1.28897,-0.88054 -2.96555,-1.32113 -3.2072,-0.16379 0.12176,-0.63524 0.48143,2.53601 1.50507,3.97503 0.0872,1.77395 -0.76066,-1.03866 -1.17441,0.72836" />
      <path
         inkscape:connector-curvature="0"
         id="path5152"
         style="font-size:48px;font-style:normal;font-variant:normal;font-weight:bold;font-stretch:normal;text-align:start;line-height:125%;letter-spacing:0px;word-spacing:0px;writing-mode:lr-tb;text-anchor:start;fill:#cccccc;fill-opacity:1;stroke:none;font-family:Gentium Basic;-inkscape-font-specification:Gentium Basic Bold"
         d="m 228.8715,-330.41141 c 0.0107,-0.94064 -0.9057,-0.49532 -2.09387,-1.21831 0.30193,-0.58233 1.49651,1.24426 0.26496,0.93506 0.82627,0.34625 0.93082,2.58378 -0.47656,3.49855 -1.37162,0.47682 -1.37032,1.13932 -2.63497,2.33942 0.58121,1.04985 8.86195,0.101 10.06081,0.0487 0.33346,1.19973 0.8066,-1.27735 -0.21762,-1.78033 0.44611,-1.28121 1.396,2.11505 1.18467,0.60567 -0.16622,0.71969 -1.23714,-1.4174 -2.55956,-1.9325 1.02112,-0.96486 0.97342,-1.00268 0.12355,-2.61458 -1.50911,-0.45655 -1.30688,-1.17227 -2.08533,-0.37303 0.66617,-0.45355 1.32095,-2.07992 0.30555,-0.90001 m 9.49323,6.44025 c 0.32305,1.26305 -1.57358,0.99705 -2.1326,2.34812 -1.28503,-0.44563 -1.6321,-1.72018 -0.74458,-1.54564 -1.3898,-0.35675 -2.17449,0.61368 -1.63159,1.59535 0.75787,-0.38622 2.3131,-1.09558 0.89603,-0.72269 1.08296,-0.51692 -11.59483,0.85012 -12.79353,0.7944 -0.92495,0.3999 2.65577,2.16574 2.06181,2.28153 0.36343,-0.25967 -1.72938,3.22809 -0.12936,4.39512 -0.40817,1.47188 2.63664,0.21803 3.26599,1.80638 -0.4426,0.0729 2.43641,-2.2134 2.8606,-1.12149 -0.70971,-0.11914 -0.97089,0.21831 -0.5043,1.37134 1.66186,0.0657 0.1366,-1.42032 1.72906,-2.1837 1.64392,-0.6894 2.50366,0.59602 2.985,-0.94813 0.80291,-1.56781 2.05969,0.0313 2.26379,-1.571 -0.10886,-1.13588 -0.087,0.20365 -1.06393,0.81925 1.17158,0.75471 -0.20091,-0.39871 1.09982,-0.0829 0.3317,1.33832 -0.60121,0.44626 0.67874,0.40528 -1.07645,-0.12536 0.90212,1.75934 0.96073,0.62214 -2.04847,1.7998 -4.40242,4.67541 -4.61721,4.35072 -1.84472,1.37243 -0.15686,1.05522 -0.48748,0.34013 -1.85479,0.91123 -0.48169,0.53197 -2.24808,1.35778 -0.87934,-1.05535 -2.08274,2.30851 -3.11931,1.11261 -0.95156,1.13938 -4.39781,-3.36496 -5.09147,-2.80253 -0.4716,0.44323 -3.75876,-0.0251 -3.59,-1.55751 0.0592,-1.72197 0.45117,-1.29361 0.0764,-3.84469 0.5657,-1.87971 -0.10931,-0.63062 -0.70045,-3.33117 -0.98928,-1.44578 -1.96966,-2.6087 -0.76445,-5.39335 0.0922,-0.71207 4.58975,-5.23239 5.02328,-6.16477 -0.66533,-0.83697 0.40296,-1.46066 0.19386,-0.75824 -0.4629,-0.97586 2.00528,0.72703 1.66101,1.34314 -0.36413,-0.9656 1.26414,-3.01886 1.27031,-2.08196 0.82406,1.05271 2.13056,0.0366 3.9081,-0.16004 1.07495,-1.10984 1.38945,0.0888 1.70392,1.51892 2.32261,0.45597 4.89932,0.47445 4.51483,0.89297 -0.11188,1.72582 0.94142,3.21478 0.27563,5.01969 -0.63384,0.48281 2.7142,2.85816 1.53527,3.89997" />
      <path
         inkscape:connector-curvature="0"
         id="path5154"
         style="font-size:48px;font-style:normal;font-variant:normal;font-weight:bold;font-stretch:normal;text-align:start;line-height:125%;letter-spacing:0px;word-spacing:0px;writing-mode:lr-tb;text-anchor:start;fill:#cccccc;fill-opacity:1;stroke:none;font-family:Gentium Basic;-inkscape-font-specification:Gentium Basic Bold"
         d="m 265.12396,-315.28726 c -0.92783,1.38603 0.19671,3.70658 -0.84129,3.31542 -0.49643,1.66744 -0.0127,-0.98661 -1.55198,-0.99021 -1.54554,0.0179 -2.75877,1.56097 -2.38057,2.51575 0.22484,1.1318 0.63307,-0.14331 -0.47569,0.93299 0.16087,-1.02155 -1.50378,-3.5627 -1.87729,-2.48814 -0.47414,1.08869 1.95563,0.16857 0.58935,0.47701 -1.22993,-1.02351 -2.5378,-1.26596 -3.08507,-0.51178 0.58634,0.52386 -0.6544,0.41783 -0.16087,-1.2385 1.17444,-0.36303 2.97062,-1.58514 2.3744,-2.95124 1.41835,-0.69544 -1.39795,-1.93906 -1.13079,-1.08918 1.59268,-0.52372 1.65163,-1.77955 1.48824,-0.97765 0.59766,-1.38468 4.20527,1.37236 3.78283,0.70987 -0.62946,0.57855 -0.0782,0.28589 1.2558,-0.35025 1.07012,-0.87463 -1.4668,-1.07536 -0.0365,-0.3732 -0.85603,0.0556 -0.0902,3.40087 1.17931,3.28814 0.25924,1.58848 -0.76722,-1.34043 0.43101,-0.72838 m -2.00268,-4.80388 c -1.2331,0.96942 0.69413,-0.86396 -0.97346,-0.67086 -0.93609,-0.98026 -1.97398,0.0284 -1.23215,0.55028 1.18171,0.20876 -1.35522,-1.04002 -2.54647,-1.18473 0.32757,1.15442 -1.03738,-20.62559 -0.0419,-21.29574 -0.73222,-0.71877 -0.0351,0.85561 -0.42942,-0.19453 1.69433,-0.49062 3.14471,-2.3121 2.53875,-2.94518 0.68884,0.9416 -1.08066,1.97149 0.56799,1.46206 1.58055,-0.74064 2.54861,0.49541 1.88035,-0.30545 -0.062,-1.1984 1.14702,-0.69277 -0.0432,-0.54006 1.1959,-0.0991 -0.64041,24.4836 0.54104,24.2734" />
    </g>
    <g
       style="fill:#cccccc;fill-opacity:1"
       transform="matrix(0.63725775,-0.36289463,0.36289463,0.63725775,756.03204,-88.285364)"
       id="g4051">
      <g
         id="text3002"
         style="font-size:164px;font-style:normal;font-variant:normal;font-weight:normal;font-stretch:normal;text-align:start;line-height:125%;letter-spacing:0px;word-spacing:0px;writing-mode:lr-tb;text-anchor:start;fill:#cccccc;fill-opacity:1;stroke:none;font-family:Courier 10 Pitch;-inkscape-font-specification:Courier 10 Pitch">
        <path
           style="fill:#cccccc;fill-opacity:1"
           inkscape:connector-curvature="0"
           id="path3029"
           d="m -134.10834,-678.0925 c 1.40683,-0.69683 -10.85887,-2.16079 -14.04756,2.40186 -5.49698,-1.59293 -4.38419,3.6066 -2.62462,4.68692 -4.92749,3.48025 -1.25207,-6.65221 -3.16701,-2.66932 -1.50011,3.5363 -13.94346,-2.0026 -16.21912,1.10905 -5.88059,-3.82627 3.04499,-9.20526 -2.39257,-7.99494 1.26835,-1.45543 -16.8679,-4.08923 -15.00043,-6.2665 -2.07529,-6.4057 -7.70808,-2.61614 -5.13006,-6.35399 -5.22213,-3.33667 1.76574,-6.85749 -0.7032,-13.76326 -4.30698,-1.60526 2.9e-4,-3.66261 -2.49371,-3.95709 3.60672,-1.61005 -2.57812,-12.16234 1.84301,-14.89911 0.46135,-7.32041 0.008,-10.11678 2.01548,-9.04703 -1.92025,-0.54423 2.11104,-3.90379 6.60008,-9.22321 4.94179,-5.24036 6.04933,-3.96825 4.55083,-6.29767 3.65637,1.96707 9.242,0.86947 10.11913,3.28534 -0.43081,1.35189 -1.51511,-5.64149 5.73001,-6.37701 2.43831,-3.93864 12.18519,0.95128 12.66098,-1.44044 -0.4829,-1.17896 2.99479,2.83726 3.40128,8.45426 1.3547,5.91365 14.1751,8.99003 12.86979,8.71146 4.80568,1.02974 -1.84751,-3.65851 -3.84646,0.47889 1.23842,-2.59539 12.02016,6.14561 10.9784,4.40696 -0.0496,-3.14182 2.6345,0.0434 1.52461,-4.66625 2.95092,2.25873 6.95484,-3.85427 3.87426,-3.70081 3.53301,-0.0638 -7.42221,4.59318 -3.94163,0.95401 0.38803,1.98187 -2.29895,-9.56365 1.07192,-13.32638 -3.99263,-3.29076 0.80028,-6.72171 -3.33186,-7.22001 -3.49381,-0.43737 -2.42955,-7.1361 -6.76933,-3.22423 -3.11012,-4 -1.7857,-4.44548 -3.89991,2.06008 -6.3175,-2.03 -0.40107,-3.09438 -1.75819,0.0668 -6.44161,-10e-6 -5.56879,-6.14694 -11.60364,-4.70731 -5.42219,2.38421 -5.93986,2.13138 -5.00311,0.18177 -3.88821,-3.95126 -13.94134,2.52924 -13.80297,0.69295 -0.2093,3.3438 -8.32252,7.58588 -7.45542,10.34059 0.58903,-0.62686 -9.49521,-0.88673 -9.75097,4.28891 -0.84011,-1.73848 -4.06801,0.79348 -4.85438,6.97944 -3.78764,-1.24353 -8.02995,7.76417 -8.09559,6.85937 -4.72421,0.30116 1.50497,2.18273 0.23967,9.23524 1.14393,-0.44632 0.58042,-3.13749 -3.63991,1.54814 -4.47444,3.2798 -1.33816,6.34572 2.34217,11.16407 3.99888,3.26826 -8.29427,13.2985 -3.87647,15.77539 -3.49264,3.57051 3.7401,3.41424 2.09819,9.39354 -2.62715,4.69827 0.78066,1.71663 3.13535,8.38242 0.20534,-0.88021 4.06151,6.73777 10.11407,8.02528 -1.77233,2.67533 -2.18223,7.32099 3.05703,6.02209 6.59396,2.47096 10.54853,-2.32 14.72023,2.71831 -1.02009,1.67376 9.80616,3.4049 9.44736,2.36268 -0.71377,-0.73157 8.23066,-5.54419 7.91575,-3.99305 4.19542,-3.72526 -0.83769,9.28903 5.16255,6.98583 3.4797,3.66559 11.69437,-8.89545 10.21185,-8.78584 6.8412,-0.34052 6.03414,7.24962 4.49883,5.35436 6.95003,-2.14809 5.69529,-11.06435 5.58074,-8.50793 6.25301,-0.7271 11.16677,3.55013 7.17008,1.09163 3.99497,-0.45553 6.54612,-6.48945 2.8302,-5.66491 3.69832,1.52396 1.41631,-8.25382 -2.41949,-11.18424 3.12359,0.12393 -1.12897,-2.47752 -5.03379,-5.71962 1.23034,-0.25869 7.42199,-0.58931 7.37938,-4.58908 -3.26921,1.7493 -3.23872,1.84545 0.85354,0.49253 8.27641,1.55725 5.50407,-6.8717 1.52057,-10.44476 -3.3243,-1.38336 -4.89684,-3.76504 -3.97849,-5.26938 3.72706,-1.45225 -5.72887,1.63711 -7.01041,0.0789 -0.20576,3.1726 -13.79355,5.86987 -13.63346,3.42298 0.97047,-0.44701 4.92576,4.34034 -1.04037,2.11525 -1.83086,-2.48446 -18.3484,3.50375 -15.08312,1.19334 -5.83303,3.52154 1.86633,1.86811 -2.11205,6.38336 2.9171,6.18086 -3.94049,7.09108 1.21397,3.64948 -1.32116,-3.77552 10.76277,-2.91509 11.78475,-5.91015 4.80769,-2.98591 -4.92529,1.32755 1.20621,1.66828 3.60397,-3.9994 12.49546,-5.4496 12.48828,-1.44961 3.99925,-0.0779 -6.07446,11.5165 -2.10976,16.80269 -3.99979,4.79631 0.27733,4.14718 3.80723,6.02861" />
        <path
           style="fill:#cccccc;fill-opacity:1"
           inkscape:connector-curvature="0"
           id="path3031"
           d="m -78.601703,-745.39284 c -0.894165,3.89878 1.257106,-3.00244 -4.815147,2.55169 2.924596,3.45224 4.284129,2.30445 2.880527,9.64229 1.561288,-0.17099 -3.549793,13.021 -8.486198,14.77386 -4.580472,4.94273 -4.223226,4.65833 -5.322108,3.6937 2.269833,0.95228 5.567095,13.3014 0.77353,14.68508 2.664086,2.04741 -10.336971,5.047 -7.554781,6.81624 2.141177,1.23616 7.858327,1.07231 4.136488,6.60814 1.512481,3.71963 -6.436808,8.91817 -4.365108,12.33988 3.137233,1.26938 1.467236,-2.28055 -2.25404,0.2893 -2.16202,3.99393 -7.6182,-3.73871 -5.29167,-4.96102 -4.56556,-1.78933 1.17102,0.32243 -2.40831,4.49508 -0.89824,6.68215 -5.0427,6.02633 -3.04344,10.77043 2.35761,-3.2893 7.18112,-0.58061 12.54981,-3.49977 -2.18554,3.35013 -5.84643,4.05926 1.820268,5.26889 -0.429988,2.96803 8.189102,-2.92627 8.025001,0.2619 2.536379,-3.77675 9.241623,-4.06882 8.562169,-0.12695 -0.02681,-2.92166 -1.124128,-2.63452 2.02167,-6.82823 4.406993,2.49522 9.662558,-6.71639 8.861488,-5.76736 3.593013,-4.42443 3.329303,2.80487 -2.079255,-0.12258 -2.344973,-4.4457 -3.930321,3.94363 -9.752894,1.55625 1.442663,-3.73078 -5.357442,-7.42443 -9.351595,-7.64063 -0.602628,-3.95434 -1.385548,3.07577 0.328003,-4.39162 4.481348,-0.62864 5.862717,-9.64544 4.39663,-8.3485 4.490609,-5.85761 10.554486,-2.33798 7.089898,-0.33883 2.458803,-3.15504 0.67971,-0.20344 1.46069,-0.20399 4.368068,3.49782 12.130436,0.12073 15.122235,-3.87847 2.940249,3.99146 -0.933203,-4.70592 1.426941,-0.71864 -0.322065,-2.35443 3.666894,7.00338 7.321462,3.19625 8.767385,-0.31933 6.7259,-4.09569 10.709225,-4.46055 -3.895413,0.90871 -0.988662,5.27504 0.921489,12.73695 -3.14423,2.52144 6.133868,7.60436 8.792343,6.08891 4.997135,5.27294 1.375046,-3.40842 -0.779933,-0.0385 3.998786,0.0985 -8.698743,-3.67105 -7.110063,-7e-5 -4.914286,3.27128 -0.164631,10.58217 -4.460173,8.30971 -5.530664,2.64477 -2.154925,6.09825 -3.961238,5.19641 -0.640143,-0.95289 -6.069958,-4.31856 -0.657284,-1.44601 -2.329419,-0.45755 5.958849,2.90017 7.341526,6.66098 3.149947,2.46532 7.201307,-5.85638 7.331553,-6.85136 4.405779,3.425 13.759907,-0.40107 13.132342,2.28152 7.997599,-0.2357 6.362082,2.86695 6.730982,-1.116 5.727001,2.23175 0.432952,1.14948 -1.824544,2.53373 5.096332,0.5996 5.819769,-10.89213 7.327084,-9.67245 -2.985028,0.1762 -1.184245,7.66357 -3.4276,2.93196 -4.329254,1.86514 4.691448,-4.02543 -1.691968,-4.72431 1.327813,3.56206 -9.152001,0.5971 -8.013149,-3.05534 -2.097801,3.40576 4.818167,4.00358 -1.290692,-1.77593 -3.722505,0.42545 -4.499876,-6.54586 -6.844949,-13.64261 -3.530955,-5.88915 7.417308,-1.03029 2.198413,-4.13758 1.617019,0.0905 -11.042185,-10.69983 -9.119158,-11.13297 1.498185,-5.87911 1.311391,-7.62326 -3.567565,-9.04751 0.01894,0.8617 -4.031944,-6.04906 -2.659895,-11.9893 1.275814,-6.17163 1.20152,-1.02044 3.596352,-5.70585 0.82031,0.15747 -4.640397,-13.27832 -8.523373,-13.01005 -1.739222,-1.34933 0.463876,-4.59879 -0.664853,-8.43624 2.89904,-1.61088 -0.859126,4.2046 -1.063484,-0.38153 -4.963476,-2.6625 -8.434903,2.2639 -6.917011,1.58995 3.986919,-0.32323 -7.383225,-10.67412 -11.830792,-6.68274 -5.206108,2.89425 -9.118505,-1.91984 -8.306283,0.4018 -7.930882,1.40354 -2.471167,1.27702 -5.958257,-0.68262 -3.731198,-3.9467 -3.019237,3.93805 -5.704354,8.22744 -6.469262,1.55782 -8.567132,-3.36744 -7.880212,3.96935 0.0499,6.55206 11.124144,-1.86784 9.215494,0.0247 2.56143,-3.22894 7.769009,2.59873 6.447945,1.67286 3.616345,-1.7094 -7.992946,-1.00696 -1.872023,1.37975 -1.058828,0.49037 11.576764,7.13794 12.38139,3.21971 m -6.702238,43.40407 c 3.999311,0.0742 3.67299,0.0459 3.729174,-8.54111 0.455848,-6.50827 -4.849742,-9.50014 -0.597441,-15.00788 -0.688441,0.82153 -1.524034,-6.17631 3.490866,-8.91763 4.619673,-4.94815 9.819922,-3.3934 7.987606,-8.83111 3.133566,-8.76785 6.110187,0.63589 2.893746,-1.74203 -0.03995,-3.9998 6.840677,2.86535 5.290838,6.10111 4.99976,1.9863 -2.046847,-1.84037 1.886889,4.16153 1.928932,-1.12493 7.205741,12.42566 5.008493,13.02539 -2.284355,4.92422 -1.953185,5.63656 2.709934,9.86174 4.332292,8.27279 -7.532289,5.94811 -3.548549,5.58781 0.563721,3.96007 -2.135673,7.11943 -7.046173,3.12463 1.493637,0.13355 -2.916268,-9.48358 -3.362123,-6.28487 -5.679832,2.82486 -8.084805,2.90725 -13.667279,5.46175 -0.707354,-0.0629 -6.491845,-3.42923 -8.036489,0.2605" />
        <path
           style="fill:#cccccc;fill-opacity:1"
           inkscape:connector-curvature="0"
           id="path3033"
           d="m 2.8053004,-732.0973 c 0.7522936,-3.92862 5.5795832,7.45041 3.5993787,0.22252 -3.7801841,-3.31717 0.689304,-10.29321 1.6672867,-8.63154 -2.0958852,-7.15374 -4.5438975,-12.85135 -7.21393651,-9.87294 3.37676171,2.14417 6.61586161,0.9967 12.77486671,-2.49929 6.459568,0.15739 4.131961,3.44004 9.555579,6.12943 4.940873,3.93364 2.789244,0.89334 0.421579,-2.33066 3.834143,1.13989 8.455197,-2.71447 5.272256,5.20203 -1.771638,6.20269 -3.497968,1.88847 -2.981912,9.19545 -0.927358,-1.0507 -0.937717,8.38052 1.837414,8.63824 2.042544,-0.49 -5.199361,11.02679 -3.2787,10.55319 -2.666848,0.0544 -0.01414,5.95222 -0.606276,12.8579 1.53286,-0.55604 -1.371586,-1.20776 1.661125,4.24084 -0.687973,-0.5998 -4.712739,6.41112 -1.859366,11.83086 1.196025,9.31031 -1.412125,3.85385 0.754764,7.21608 1.230854,-3.80591 0.786913,1.0446 -6.130434,0.0856 -1.683795,3.76523 -6.700972,9.13156 -5.416465,5.34342 -1.376204,3.99875 2.769829,0.76796 3.986052,-2.92195 -3.715343,-3.72796 -11.1532456,-6.86167 -11.5448605,-2.21024 -3.8760696,-2.22088 8.0814645,5.05286 4.3050792,6.03482 -3.6460222,2.12684 4.4963393,4.56907 5.8952643,7.90373 0.310878,-3.9879 -6.568127,-0.31401 1.787263,-2.87439 -1.238673,-0.79199 10.569938,0.22412 9.961933,-0.94634 3.676604,-3.93519 11.081755,-3.47347 14.127639,0.5256 2.048422,3.82549 -1.599371,2.5739 3.719282,-0.43421 9.257755,-0.43642 12.502617,3.67715 13.452352,-0.20846 -0.354616,0.54562 7.913566,1.43691 5.715096,1.00659 0.42749,0.0411 -9.924786,-7.63122 -12.070997,-10.91656 -0.329885,3.99671 1.337844,-3.44104 2.908826,-1.05575 -0.646552,-3.9474 -12.040487,7.62117 -12.358741,4.72283 0.634572,1.49636 -1.960675,2.03551 -5.734531,0.70961 -3.248218,2.33433 -2.769605,-0.91717 -0.352599,-9.59827 1.549291,-6.3042 5.711349,-10.71446 7.567542,-10.51163 -2.539887,0.24982 -5.524862,-2.15287 -1.607717,-6.10125 0.735773,-6.88093 1.737322,-2.50854 -0.965639,-8.49221 3.362418,-5.2023 4.084818,-12.64016 2.49451,-11.91964 3.434493,-1.08816 1.315186,-0.96873 -1.215373,-6.90693 2.672248,-0.36417 -4.744958,-9.88771 -4.682693,-8.50467 3.093713,-2.95778 -3.530367,-9.81192 0.350057,-8.84119 -0.301692,3.9886 -1.341895,-1.96523 6.649481,-0.6457 2.727245,3.99124 3.753078,-4.19403 9.204727,-6.85222 4.324902,3.99849 16.171303,5.76678 12.741124,3.70914 -1.006744,-3.87124 -9.083512,3.41636 -6.420704,4.12759 2.494573,-0.96103 -2.407862,12.64916 1.470566,13.60554 0.999823,7.73269 6.590507,2.87734 4.417109,6.23537 0.245333,-1.05581 -4.708983,5.17662 -0.18286,7.17202 4.205422,-0.0305 0.154524,-2.78493 -0.226137,-0.99341 6.337178,2.92431 9.587399,-0.6689 13.539414,-5.0586 -0.538589,3.63557 2.816776,-3.09062 -0.955389,-6.88132 0.858656,3.90676 -3.012435,-2.58483 -7.131968,-7.92954 0.219584,-6.82022 -2.391976,-0.55388 1.505847,-3.72299 0.436481,-0.89092 0.367603,-11.80095 2.495391,-8.41384 -3.079163,-6.67495 -5.867708,-4.17172 -10.688994,-8.10615 3.464135,-1.99994 -1.119895,4.51053 -4.012672,1.98888 -3.647381,3.92951 -4.792252,-4.1031 -9.569841,-0.26457 -1.895076,3.7965 -7.685305,2.63874 -14.415839,0.3906 -4.931177,3.64839 -0.251959,1.73601 -4.190207,-2.21132 -5.520338,3.40565 -17.899482,-3.07073 -17.704672,-0.88456 -3.002955,-3.94697 -0.771891,-6.5017 -6.9836757,-4.25914 -2.0798668,-0.8031 -9.5682611,4.85921 -12.5226576,2.16263 -3.7324754,-3.98308 -0.1378673,-0.51136 -4.2903734,3.72765 -3.3463323,-2.19136 -1.5126113,9.69455 -2.0058313,10.55684 3.8827903,2.34915 2.7219355,15.43318 4.052426,14.52519 -3.2530953,7.37233 -3.438143,12.35379 -2.9380076,8.38518 -3.7062924,4.31799 4.0546829,-6.99825 1.7335507,-3.74059 1.6141761,0.27615 2.3560073,17.73759 6.5670352,13.7833 4.3741801,3.82246 9.8979706,-6.01413 8.0940913,-4.92307 -3.4138987,-1.94007 -3.6561802,-12.24621 -1.2188755,-11.96228" />
        <path
           style="fill:#cccccc;fill-opacity:1"
           inkscape:connector-curvature="0"
           id="path3035"
           d="m 135.08664,-677.66754 c -5.70169,-3.09934 -10.43554,10.40013 -11.67316,5.78062 0.49984,1.15738 -12.59641,-3.74413 -10.99615,-6.32779 -1.60048,-5.79821 -0.17557,-7.53716 1.4833,-8.0176 -4.02443,-5.5106 -6.79767,-6.03078 -7.09156,-13.04567 2.53094,-4.82861 2.84111,-7.70342 -0.79464,-8.51754 3.4235,-4.09254 -4.28212,-5.62205 -6.215474,-5.31776 3.960174,-3.76885 4.594164,-6.43544 3.528414,-13.00437 2.43546,-6.65087 0.26235,-0.41165 -0.7475,-6.66756 2.3304,-6.84856 6.14569,-4.13809 8.13256,-10.53088 5.07233,-0.62792 -3.11854,-6.37149 1.78499,-5.21559 -1.30648,-3.54486 5.14976,-3.50381 7.52855,-0.48775 5.385,-3.89443 15.85874,-0.57 16.55344,-3.68426 7.15641,-0.36443 -4.06513,-2.54521 1.03886,1.61254 4.20911,4.74071 7.36454,-0.28428 7.84439,5.19125 2.30688,5.84912 10.40276,4.28947 10.28356,10.57181 5.21632,0.96265 -2.23433,-4.54489 2.27841,0.39313 0.62046,6.69349 1.52821,9.81174 3.56815,16.65891 2.29116,6.33358 -5.65023,7.24717 -3.56013,7.03412 3.99949,3.13308 -0.2916,-2.83957 0.77644,3.71753 3.04167,5.19817 7.7605,7.10604 2.94127,9.26576 -3.56091,0.0221 -9.04742,4.65708 -6.53867,7.18674 2.31792,3.05152 -1.38299,2.74961 -6.83463,6.98453 0.96971,-0.29718 1.81011,12.84259 -3.95135,11.02043 1.23821,0.70804 -4.98608,1.35497 -7.95432,-2.63979 m 42.37406,-40.25164 c -2.94234,-0.47669 3.68015,-3.61728 -0.15648,-8.64256 -3.41214,-0.4806 2.26497,-7.35521 -1.34383,-7.30702 0.40706,-6.81258 -2.74017,-3.85382 -4.21339,-10.52678 0.57546,0.64294 -3.40169,2.76407 -8.84138,-1.43122 -4.10552,-5.81929 -3.03559,-15.07031 -7.97021,-13.90247 1.53825,-1.30409 -6.50098,-7.30295 -7.20619,-5.22054 0.72896,0.66436 -4.00051,4.36363 -3.45879,1.98054 -2.33866,-4.59071 -12.78466,-5.56564 -16.96026,-1.69117 0.76135,-0.60247 -5.369,-3.37908 -4.36751,-3.4678 0.86792,0.0412 -6.86474,7.02177 -5.69426,7.53462 -0.68201,4.70827 -15.97824,5.74636 -15.75877,4.66461 -6.013422,3.6014 -6.318164,2.23211 -6.055858,8.01557 -4.631772,-0.53979 -0.135007,2.77444 2.279432,4.49658 -3.10098,6.28054 0.695871,10.73434 -3.444648,11.41864 -0.908067,6.86945 -4.870908,5.27595 -1.862553,6.39311 -4.190057,1.67289 0.288481,12.13452 -3.595263,14.36735 3.974409,3.6303 -8.366632,2.86236 -4.006944,6.50771 4.056291,4.86336 12.162624,4.942 9.426542,6.09561 4.721422,1.74522 5.946142,7.40924 3.555617,8.7343 2.380645,6.68946 -2.404302,10.6332 -2.67155,9.61941 0.161059,-1.13331 1.589649,1.8209 6.529125,6.79934 3.83976,-1.7922 10.1314,2.319 10.31827,0.60926 -1.23523,1.69212 9.22045,8.50999 8.45434,10.37776 1.13393,4.22121 10.43857,-7.58356 9.76125,-6.48224 3.16001,3.99995 14.06585,3.55231 13.63466,5.07394 2.32334,3.26503 2.74253,-3.87986 6.38361,-1.28711 6.20079,0.77052 12.01323,-6.80269 10.62498,-7.48854 0.0793,1.36129 -5.72526,-8.57734 -1.27003,-7.90494 5.80529,-3.15236 3.47056,-6.70841 5.61184,-5.58405 5.35183,-3.01887 12.01054,-2.51112 9.86688,-8.12161 3.57967,-5.80562 -1.77244,-5.16273 -4.83377,-10.2567 -3.57764,-2.64683 9.82083,-12.64 6.17613,-14.17824" />
      </g>
    </g>
  </g>
</svg>
