<?xml version="1.0" encoding="UTF-8" standalone="no"?>
<!-- Created with Inkscape (http://www.inkscape.org/) -->

<svg
   xmlns:dc="http://purl.org/dc/elements/1.1/"
   xmlns:cc="http://creativecommons.org/ns#"
   xmlns:rdf="http://www.w3.org/1999/02/22-rdf-syntax-ns#"
   xmlns:svg="http://www.w3.org/2000/svg"
   xmlns="http://www.w3.org/2000/svg"
   xmlns:xlink="http://www.w3.org/1999/xlink"
   xmlns:sodipodi="http://sodipodi.sourceforge.net/DTD/sodipodi-0.dtd"
   xmlns:inkscape="http://www.inkscape.org/namespaces/inkscape"
   width="1920"
   height="1080"
   id="svg2"
   version="1.1"
   inkscape:version="0.48.5 r10040"
   sodipodi:docname="gato.svg">
  <defs
     id="defs4">
    <linearGradient
       id="linearGradient3875">
      <stop
         style="stop-color:#767676;stop-opacity:1;"
         offset="0"
         id="stop3877" />
      <stop
         style="stop-color:#000000;stop-opacity:1;"
         offset="1"
         id="stop3879" />
    </linearGradient>
    <radialGradient
       inkscape:collect="always"
       xlink:href="#linearGradient3875"
       id="radialGradient3881"
       cx="369.61646"
       cy="254.17609"
       fx="369.61646"
       fy="254.17609"
       r="353.05658"
       gradientTransform="matrix(2.7191109,0,0,1.5294999,-465.02814,-679.37981)"
       gradientUnits="userSpaceOnUse" />
  </defs>
  <sodipodi:namedview
     id="base"
     pagecolor="#ffffff"
     bordercolor="#666666"
     borderopacity="1.0"
     inkscape:pageopacity="0.0"
     inkscape:pageshadow="2"
     inkscape:zoom="0.5"
     inkscape:cx="682.38002"
     inkscape:cy="381.8941"
     inkscape:document-units="px"
     inkscape:current-layer="layer1"
     showgrid="false"
     inkscape:window-width="1920"
     inkscape:window-height="1009"
     inkscape:window-x="0"
     inkscape:window-y="48"
     inkscape:window-maximized="1"
     fit-margin-top="0"
     fit-margin-left="0"
     fit-margin-right="0"
     fit-margin-bottom="0" />
  <metadata
     id="metadata7">
    <rdf:RDF>
      <cc:Work
         rdf:about="">
        <dc:format>image/svg+xml</dc:format>
        <dc:type
           rdf:resource="http://purl.org/dc/dcmitype/StillImage" />
        <dc:title></dc:title>
      </cc:Work>
    </rdf:RDF>
  </metadata>
  <g
     inkscape:label="Layer 1"
     inkscape:groupmode="layer"
     id="layer1"
     transform="translate(420,830.61755)">
    <rect
       style="fill:url(#radialGradient3881);fill-opacity:1;fill-rule:nonzero;stroke:none"
       id="rect3105"
       width="1920"
       height="1080"
       x="-420"
       y="-830.61755" />
    <path
       inkscape:connector-curvature="0"
       id="path3029"
       d="m 527.5406,-28.185258 c -5.81393,-2.333052 -10.99784,-7.490728 -13.59364,-13.5248 -2.39899,-5.576629 -2.58948,-7.498504 -1.89347,-19.101955 0.42565,-7.095789 1.28388,-21.38074 1.90719,-31.744298 0.62332,-10.363549 1.74027,-32.221999 2.48209,-48.574339 1.50047,-33.07514 1.94898,-35.11745 11.15446,-50.7922 2.84225,-4.8397 15.36249,-25.62758 27.82277,-46.1953 12.46024,-20.56776 23.48303,-39.03705 24.49507,-41.04291 1.01201,-2.00585 4.11888,-6.23315 6.90407,-9.39399 4.17754,-4.74096 8.86892,-7.66711 26.79923,-16.71543 11.95437,-6.03261 23.11421,-10.9684 24.79965,-10.9684 1.68546,0 4.95951,1.66391 7.27572,3.69756 l 4.21127,3.69752 8.29159,-1.39653 c 12.52718,-2.10991 27.93032,-5.78114 32.32995,-7.70561 2.1571,-0.94353 6.38373,-3.99606 9.39251,-6.78337 6.97964,-6.4659 10.80435,-9.07073 11.82304,-8.05207 1.30481,1.30484 -2.06521,15.4033 -5.33454,22.31693 -2.98306,6.30819 -6.4885,8.52313 -6.4885,4.09975 0,-4.08026 -2.54886,-4.81891 -9.72534,-2.81832 -9.68485,2.69979 -24.77392,17.9426 -35.07008,35.42739 -10.887,18.48816 -9.72477,22.07843 4.42582,13.67174 7.88293,-4.68316 21.19934,-9.95965 25.13541,-9.95965 2.21838,0 2.3617,2.31372 0.30362,4.90049 -0.81452,1.02376 -12.69545,10.84198 -26.40208,21.81831 -60.05684,48.0938 -92.71677,77.32217 -97.79793,87.52244 -4.00927,8.04846 -5.58446,15.74885 -6.71463,32.825 -0.94276,14.24431 -0.0679,39.591059 2.16178,62.636137 1.13039,11.683125 -0.40812,17.531557 -6.47719,24.621859 -6.6088,7.720909 -14.81648,10.504138 -22.21784,7.534046 z M 413.7692,-148.84901 c -4.22903,-3.91934 -6.01452,-12.25456 -5.32691,-24.86763 0.47819,-8.77173 1.474,-12.90247 5.71557,-23.70903 6.66131,-16.97161 33.06266,-70.15154 36.22475,-72.96719 2.87724,-2.56197 5.93015,-3.39823 102.5581,-28.09256 11.76527,-3.00673 22.57548,-5.15715 24.0227,-4.77869 4.71721,1.23356 4.5582,5.83019 -0.4885,14.12103 -14.4725,23.77581 -28.90764,43.3685 -31.99585,43.42767 -0.42521,0.009 -14.13909,2.71127 -30.47528,6.00695 -18.97894,3.8288 -30.76528,6.78594 -32.64677,8.19093 -1.72094,1.28506 -10.69903,17.10183 -21.60459,38.06095 -19.93205,38.30679 -23.65469,43.52171 -32.90043,46.0889 -6.98572,1.93967 -9.72629,1.62935 -13.08279,-1.48133 z m 423.11981,-47.34284 c -6.15415,-4.39804 -36.39123,-28.19007 -53.68807,-42.24438 -6.17156,-5.01463 -15.56371,-12.63739 -20.87144,-16.93949 -14.84379,-12.03134 -14.32709,-10.87014 -14.7793,-33.21275 -0.34177,-16.88693 -0.15077,-19.24366 1.6145,-19.92109 1.1437,-0.43886 3.22447,0.21525 4.85278,1.52562 6.38577,5.13864 85.52394,74.18309 90.96996,79.36716 10.3873,9.88766 14.17487,21.08701 9.91645,29.32186 -3.70482,7.16432 -9.91783,7.88964 -18.01488,2.10307 z M 667.7365,-274.96417 c 10.36661,-10.47738 20.61484,-15.97719 31.19793,-16.74269 l 7.24189,-0.52384 5.75837,6.23092 c 3.16711,3.42698 6.01945,6.23089 6.33855,6.23089 0.31908,0 0.62127,-7.52192 0.67155,-16.7154 0.0938,-17.15523 2.86285,-33.4214 7.07659,-41.56985 3.78128,-7.31219 16.32,-15.3216 31.64181,-20.21197 12.14426,-3.87615 12.0489,-4.36205 -3.18237,-16.21591 -10.00702,-7.78807 -23.49547,-22.6553 -27.20592,-29.98699 -7.20433,-14.23533 -4.08359,-28.99778 9.2034,-43.53586 3.29398,-3.60413 5.98906,-7.66988 5.98906,-9.03501 0,-3.35815 -5.1424,-6.78301 -14.93459,-9.94653 -5.14201,-1.66123 -9.04791,-3.7756 -10.58545,-5.73026 -2.66216,-3.38442 -8.03904,-19.26812 -9.28435,-27.42666 -1.78088,-11.66742 -4.17209,-11.92247 -25.31698,-2.70027 -14.30665,6.23973 -21.32826,8.10219 -21.32826,5.65727 0,-0.56587 5.88079,-6.44129 13.06842,-13.05649 19.70227,-18.13321 33.82805,-32.55886 37.35879,-38.15196 4.01529,-6.36064 6.42809,-7.3348 9.32026,-3.76313 2.0343,2.51227 2.21034,5.14715 1.98297,29.68265 -0.21452,23.16458 0.0555,27.81876 1.93456,33.31947 1.28678,3.76705 3.26605,6.97486 4.81778,7.80815 4.78091,2.56735 17.00514,4.6346 32.15731,5.43812 8.21459,0.4356 15.22968,1.26785 15.58909,1.84937 0.35943,0.58154 -1.47549,3.64299 -4.07756,6.80325 -7.41369,9.0041 -18.95916,25.44554 -25.73073,36.64221 -5.81456,9.61423 -7.18705,14.3174 -5.47791,18.7713 0.38994,1.0162 13.8058,13.46685 29.81305,27.66812 16.00723,14.20128 28.93546,26.32632 28.72937,26.94454 -0.20603,0.61822 -6.37352,2.65252 -13.70548,4.52064 -16.95255,4.31941 -32.63053,10.10534 -38.85978,14.34116 -2.82149,1.91856 -6.00113,5.59883 -7.5748,8.76737 -5.05087,10.16995 -11.25704,39.38599 -11.26417,53.02691 -0.005,12.81223 -4.88062,12.95059 -19.31303,0.54823 -3.75519,-3.22698 -8.02257,-6.48328 -9.48297,-7.23621 -6.86763,-3.5405 -16.33351,-0.35087 -30.41734,10.24945 -4.83502,3.63917 -9.20389,6.61663 -9.70853,6.61663 -0.50469,0 2.89709,-3.85545 7.55947,-8.56762 z m 115.03821,-35.84766 c -10.28104,-2.23135 -20.13587,-7.80068 -20.59889,-11.64119 -0.33357,-2.7667 1.08719,-3.38334 30.19158,-13.10376 18.33176,-6.1225 30.81691,-10.91784 31.23026,-11.99496 0.37874,-0.98705 0.19538,-3.0162 -0.40778,-4.50927 -0.603,-1.49308 -13.26825,-13.49723 -28.14497,-26.67592 -23.04171,-20.41174 -27.04854,-24.46268 -27.04854,-27.34631 0,-4.32938 2.94258,-6.94735 10.29644,-9.16054 14.46288,-4.35268 29.60724,-2.98537 42.31228,3.82016 17.22939,9.22901 28.87651,28.9242 28.82645,48.74538 -0.0613,24.27031 -20.0923,47.9818 -44.27672,52.41202 -9.00479,1.64953 -12.67869,1.55996 -22.38011,-0.54561 z m -193.75905,-16.06411 c -3.13188,-3.56246 -7.22633,-12.5909 -6.53137,-14.40193 1.15515,-3.01027 4.38757,-1.8281 6.97023,2.54918 1.38073,2.34015 3.03132,4.25483 3.66802,4.25483 2.82245,0 4.64357,-8.48517 4.22313,-19.67711 -0.46265,-12.31634 -3.80946,-24.60358 -10.99828,-40.37844 -3.46536,-7.60422 -5.66675,-10.25905 -17.76105,-21.41931 -7.59298,-7.00659 -26.55981,-24.6376 -42.14853,-39.17999 -15.58871,-14.5424 -28.90161,-26.44075 -29.58424,-26.44075 -1.25178,0 4.15449,9.09732 11.74128,19.7574 2.26141,3.17748 4.11163,6.04058 4.11163,6.36244 0,0.32188 4.12608,6.69062 9.16906,14.15275 5.04296,7.46214 10.56551,15.95046 12.27231,18.86289 3.27392,5.58651 5.36072,6.14343 4.4114,1.17733 -0.31121,-1.62796 -0.0962,-3.79909 0.47784,-4.82478 0.91666,-1.63801 1.86739,-1.53013 7.81408,0.8868 11.58394,4.70808 21.99696,12.91815 16.38439,12.91815 -1.07095,0 -4.73879,-1.45971 -8.15074,-3.24376 -7.40441,-3.87166 -9.39918,-3.15022 -11.79812,4.26703 -0.89922,2.78028 -2.33131,5.05504 -3.18244,5.05504 -0.85112,0 -10.78287,-14.05741 -22.07053,-31.23869 -11.28768,-17.18129 -24.51699,-37.28537 -29.39849,-44.67571 -8.63667,-13.07557 -10.89025,-18.2997 -7.89411,-18.2997 1.37828,0 14.93707,11.43806 33.14443,27.96033 4.42084,4.01169 12.09145,10.84981 17.04583,15.19582 4.95434,4.34601 14.26208,12.55175 20.68386,18.23498 6.42179,5.68322 17.00401,14.9831 23.51601,20.66633 10.87951,9.49488 12.26776,11.22076 17.11238,21.27417 6.89502,14.30836 12.85345,34.31219 12.85345,43.15197 0,3.77577 -0.88209,9.45387 -1.96021,12.61798 -1.07813,3.1641 -1.6964,6.01678 -1.37391,6.33927 0.32246,0.32246 6.26479,-1.8167 13.20513,-4.75374 6.94035,-2.93704 19.45694,-8.20805 27.81464,-11.71335 23.72311,-9.9497 50.13333,-21.76552 54.26347,-24.27722 2.0787,-1.26412 4.98083,-4.81345 6.49746,-7.94636 3.5398,-7.31228 3.8694,-23.27306 0.70382,-34.08489 -2.77448,-9.47611 -13.82403,-32.20329 -16.07695,-33.06784 -0.961,-0.36876 -5.63497,1.04669 -10.38663,3.14546 -7.39733,3.26733 -8.91768,3.57869 -10.57535,2.16581 -1.0648,-0.90755 -15.33871,-12.72431 -31.71981,-26.25948 -50.91892,-42.07262 -75.3713,-62.98673 -75.3713,-64.46494 0,-0.55084 5.8259,-3.55293 12.94644,-6.67135 l 12.94647,-5.66985 4.90738,4.62777 c 2.69904,2.5453 5.55062,5.17486 6.33685,5.84346 8.28304,7.04412 16.66586,14.36836 21.73723,18.99222 3.39007,3.09093 8.07844,7.18499 10.41859,9.09793 2.34016,1.91293 4.52836,3.76833 4.86268,4.12307 0.3343,0.35475 4.43717,3.91937 9.11748,7.92139 4.68033,4.00201 9.05674,7.88893 9.72533,8.63759 0.66862,0.74867 7.50674,6.72641 15.19582,13.28382 25.67767,21.89845 25.24424,21.4278 31.5323,34.24164 13.27951,27.06111 15.94841,46.67646 8.375,61.55269 -4.27495,8.39719 -0.34259,6.29645 -61.18143,32.68403 -60.48002,26.23196 -54.89757,24.24155 -58.02193,20.68762 z m -173.56246,-9.67602 c -6.37521,-2.34413 -7.99911,-9.06593 -3.26474,-13.51364 2.81324,-2.6429 2.82176,-2.64324 65.11807,-2.64324 41.59227,0 63.10548,0.4287 64.71403,1.28957 5.26175,2.81598 5.24487,10.11949 -0.0328,14.17151 -1.45992,1.12089 -16.8535,1.46699 -63.31998,1.42359 -33.7651,-0.0315 -62.21171,-0.35901 -63.21462,-0.72779 z m 148.74815,-4.06242 c -2.76846,-1.37039 -5.94394,-3.49755 -7.05664,-4.72705 -1.94872,-2.15331 -1.73308,-2.21218 5.86755,-1.60208 l 7.89063,0.63339 7.06787,-5.61028 c 3.88731,-3.08564 7.25044,-5.07168 7.47359,-4.41346 0.72452,2.13706 -6.56153,12.66832 -10.70824,15.47776 -4.8889,3.31226 -4.35628,3.30004 -10.53476,0.24167 z m -19.27972,-12.87439 c -6.53002,-2.61179 -11.54885,-9.19457 -11.54885,-15.14775 0,-5.75123 1.80705,-6.96464 5.37711,-3.6107 2.31525,2.17503 3.30689,2.3926 6.08717,1.33554 4.67452,-1.77726 3.34571,-3.91642 -3.52092,-5.66812 -7.1826,-1.83229 -9.02914,-3.56288 -9.9668,-9.34091 -0.66241,-4.08204 -0.25785,-4.94371 4.60353,-9.8051 9.30535,-9.30535 19.1125,-9.63277 28.22054,-0.94221 10.33771,9.8639 14.41927,25.98689 8.57372,33.86791 -6.80333,9.17236 -18.43847,13.06586 -27.8255,9.31134 z m 34.67921,-15.32766 c 3.11697,-6.86678 2.99138,-10.44303 -0.6563,-18.6911 -1.6802,-3.79924 -2.76426,-7.19835 -2.40903,-7.5536 0.92879,-0.92877 10.20987,8.31739 12.25028,12.20418 0.94782,1.80551 1.72331,4.36079 1.72331,5.67843 0,2.33781 -10.08614,13.52868 -12.1932,13.52868 -0.58313,0 -0.005,-2.32496 1.28494,-5.16659 z m -83.04743,1.98062 c -0.47643,-0.47643 -0.86625,-1.62035 -0.86625,-2.54204 0,-2.0039 11.82755,-19.80097 13.15932,-19.80097 1.59973,0 20.80374,9.83523 21.54461,11.03394 1.80452,2.91983 -3.68597,2.16685 -10.43676,-1.4313 -9.0599,-4.82887 -10.28198,-4.3343 -14.00217,5.66695 -2.15565,5.79519 -3.26273,7.29123 -5.60911,7.57994 -1.60786,0.1978 -3.31321,-0.03 -3.78964,-0.50652 z m -265.40965,-28.38925 c -2.97916,-1.21286 -7.76582,-6.91822 -7.76582,-9.25633 0,-0.88128 0.65357,-3.03676 1.45237,-4.78989 3.17823,-6.97553 -4.07235,-6.6522 149.17269,-6.6522 100.77597,0 141.86594,0.38524 143.98322,1.34994 6.44309,2.93568 7.86538,11.58638 2.74661,16.70547 l -3.21861,3.21874 -141.90152,0.23465 c -78.04587,0.12921 -143.05689,-0.23562 -144.46894,-0.81046 z m 359.72085,-21.00234 c -2.5255,-2.17301 -6.51066,-5.66428 -8.85591,-7.7584 -2.34525,-2.09416 -8.18708,-7.0176 -12.98186,-10.94101 -7.61012,-6.22715 -41.70693,-35.1382 -50.24202,-42.60076 -7.72255,-6.75211 -11.00377,-9.51788 -20.33787,-17.14306 -5.50257,-4.49512 -9.87688,-8.96548 -9.72068,-9.93407 0.1561,-0.96861 4.93183,-3.80563 10.61251,-6.30451 10.21462,-4.49329 15.21517,-5.64685 16.00165,-3.69137 0.22276,0.55414 4.23457,4.23537 8.91487,8.18051 70.79004,59.67044 95.4298,80.82062 95.4298,81.91464 0,0.54464 -0.68383,1.53642 -1.51958,2.20395 -1.29532,1.0346 -21.34565,10.025 -22.35767,10.025 -0.19344,0 -2.41778,-1.77792 -4.94324,-3.95092 z m 28.5277,-25.53722 c -8.19668,-6.8112 -15.99715,-13.40656 -17.33436,-14.6564 -1.33726,-1.24985 -6.49129,-5.64161 -11.45341,-9.7595 -4.96215,-4.11791 -11.25322,-9.46542 -13.98017,-11.88337 -2.72695,-2.41794 -12.8903,-11.0924 -22.58526,-19.2766 -21.82059,-18.42029 -24.54645,-20.81712 -26.43492,-23.24402 -1.31762,-1.69332 0.017,-2.58803 10.59699,-7.10581 6.65744,-2.84271 12.63178,-4.97974 13.27633,-4.74893 1.15472,0.41351 11.48717,9.095 63.2442,53.13868 14.43063,12.28008 30.19029,25.68278 35.02142,29.78383 4.83114,4.10104 8.79726,8.02669 8.81358,8.72361 0.025,1.07165 -15.36029,8.52329 -22.14509,10.72554 -1.47029,0.47726 -6.66532,-3.09317 -17.01931,-11.69703 z m -295.14529,-14.9169 c -1.88504,-2.00655 -2.88638,-4.52542 -2.88638,-7.26077 0,-2.73533 1.00134,-5.25423 2.88638,-7.26076 l 2.88638,-3.07241 76.30725,0 76.30726,0 3.3501,2.88164 c 2.55119,2.19443 3.35011,3.97141 3.35011,7.45153 0,3.4801 -0.79892,5.2571 -3.35011,7.45153 l -3.3501,2.88163 -76.30726,0 -76.30725,0 -2.88638,-3.07239 z"
       style="fill:#ffffff" />
  </g>
</svg>
